<svg width="153" height="152" viewBox="0 0 153 152" fill="none" xmlns="http://www.w3.org/2000/svg">
<path d="M43.8459 8.42815L43.2682 8.9559C43.1697 8.86493 43.0526 8.78721 42.9171 8.72274C42.7826 8.6551 42.628 8.62135 42.4533 8.6215C42.2786 8.62165 42.0822 8.67634 41.8642 8.78558C41.5658 8.93512 41.3515 9.12852 41.2215 9.36579C41.0925 9.59988 41.0806 9.8217 41.1856 10.0312C41.2789 10.2175 41.4203 10.3307 41.6099 10.3707C41.7994 10.4108 42.0562 10.3947 42.3801 10.3224L43.193 10.1375C43.6821 10.0249 44.0881 10.024 44.4111 10.1349C44.7331 10.2437 44.9794 10.4684 45.1502 10.8092C45.2901 11.0886 45.3349 11.3787 45.2843 11.6794C45.2359 11.9791 45.1006 12.264 44.8785 12.5341C44.6564 12.8043 44.3559 13.0343 43.977 13.2242C43.4796 13.4734 43.0138 13.5717 42.5797 13.5191C42.1456 13.4666 41.7812 13.2546 41.4866 12.8832L42.1086 12.3491C42.3079 12.5776 42.5346 12.7103 42.7887 12.7471C43.0449 12.7829 43.3265 12.7239 43.6334 12.5701C43.9827 12.3951 44.2228 12.1821 44.3539 11.9311C44.486 11.6769 44.4996 11.445 44.3946 11.2355C44.3097 11.0661 44.1794 10.954 44.0036 10.8991C43.8268 10.8421 43.6012 10.8465 43.3271 10.9124L42.4189 11.1292C41.9192 11.2471 41.509 11.2475 41.1881 11.1302C40.8682 11.0098 40.624 10.7813 40.4554 10.4448C40.3175 10.1696 40.2728 9.8875 40.3212 9.59842C40.3718 9.30828 40.5013 9.03554 40.7096 8.78021C40.9201 8.52381 41.1968 8.30971 41.5397 8.1379C42.0223 7.8961 42.4542 7.81209 42.8354 7.88588C43.2187 7.9586 43.5555 8.13936 43.8459 8.42815ZM49.1423 10.8983C48.6557 11.0969 48.1921 11.1608 47.7516 11.0901C47.3123 11.0162 46.9181 10.8242 46.5691 10.5141C46.2214 10.2009 45.9419 9.78563 45.7308 9.26835C45.5197 8.75107 45.4278 8.25669 45.4553 7.78521C45.4841 7.31065 45.6231 6.89334 45.8725 6.5333C46.1232 6.17016 46.4765 5.89555 46.9324 5.70947C47.1954 5.60212 47.4731 5.53994 47.7653 5.52294C48.0575 5.50595 48.3491 5.55314 48.6401 5.66453C48.9301 5.77372 49.2033 5.96392 49.4598 6.23514C49.7162 6.50635 49.9406 6.87758 50.133 7.34884L50.2672 7.67762L46.3744 9.26648L46.1006 8.59576L49.2043 7.32897C49.088 7.04402 48.9273 6.81303 48.722 6.63597C48.519 6.45803 48.287 6.34689 48.026 6.30256C47.7671 6.25733 47.4975 6.29198 47.2169 6.40649C46.9078 6.53263 46.6717 6.71849 46.5086 6.96407C46.3468 7.20656 46.2552 7.47406 46.234 7.76656C46.2127 8.05907 46.2589 8.3445 46.3725 8.62287L46.555 9.07001C46.7107 9.4514 46.9084 9.74786 47.1482 9.9594C47.3892 10.1679 47.6563 10.2928 47.9494 10.3343C48.2416 10.3736 48.5444 10.3292 48.8578 10.2013C49.0617 10.1181 49.2342 10.0145 49.3753 9.89038C49.5177 9.7632 49.6255 9.61693 49.6986 9.45156C49.7709 9.28399 49.8041 9.09911 49.7983 8.89692L50.6338 8.80138C50.6587 9.08785 50.6173 9.36554 50.5097 9.63447C50.4012 9.90121 50.2319 10.1442 50.0018 10.3634C49.7707 10.5805 49.4842 10.7588 49.1423 10.8983ZM55.1417 10.9061C54.7559 11.0288 54.4085 11.0847 54.0994 11.0738C53.7911 11.065 53.5189 11.01 53.283 10.9087C53.05 10.8089 52.8506 10.686 52.6849 10.54L53.179 9.8909C53.2813 9.96269 53.4072 10.0419 53.5565 10.1286C53.7065 10.2175 53.8917 10.2765 54.1122 10.3058C54.3356 10.3365 54.6042 10.302 54.9177 10.2022C55.3373 10.0687 55.6513 9.85702 55.8597 9.56713C56.0681 9.27723 56.1034 8.91571 55.9655 8.48256L55.6296 7.42677L55.5619 7.4483C55.5334 7.56171 55.4873 7.70558 55.4235 7.87991C55.3612 8.05126 55.247 8.22302 55.0806 8.39519C54.9158 8.56439 54.6642 8.70283 54.3259 8.8105C53.9062 8.94401 53.4979 8.96462 53.1009 8.87233C52.7061 8.77932 52.3514 8.57418 52.0368 8.25691C51.7244 7.93891 51.4821 7.5092 51.3098 6.96777C51.1404 6.43535 51.0865 5.94196 51.1482 5.48759C51.2091 5.03096 51.372 4.64124 51.637 4.31843C51.9012 3.99336 52.2522 3.7612 52.6899 3.62195C53.0283 3.51428 53.3147 3.48526 53.5491 3.53489C53.785 3.58155 53.9786 3.65907 54.1299 3.76746C54.2827 3.87288 54.4028 3.96137 54.4901 4.03295L54.5714 4.00711L54.3086 3.18142L55.0802 2.93593L56.7814 8.2826C56.9235 8.72929 56.9376 9.1248 56.8235 9.46915C56.7125 9.81503 56.5074 10.1076 56.2084 10.3468C55.9124 10.5876 55.5568 10.774 55.1417 10.9061ZM54.2059 8.05864C54.5262 7.95671 54.7736 7.79726 54.948 7.58027C55.1225 7.36329 55.2234 7.09888 55.2509 6.78704C55.2784 6.4752 55.2311 6.12753 55.1091 5.74401C54.9899 5.36952 54.8284 5.05696 54.6244 4.80634C54.4205 4.55572 54.1821 4.38437 53.9093 4.29228C53.6366 4.2002 53.3377 4.20584 53.0129 4.3092C52.6745 4.41687 52.4198 4.59232 52.2487 4.83556C52.0799 5.07808 51.9851 5.36166 51.9642 5.68632C51.9455 6.01026 51.9921 6.34819 52.1041 6.70013C52.219 7.06108 52.3769 7.36236 52.578 7.60396C52.7807 7.84258 53.0188 8.00532 53.2924 8.09217C53.5675 8.17605 53.872 8.16488 54.2059 8.05864ZM61.0954 4.82727L60.4084 1.67686L61.2273 1.49831L62.3893 6.82764L61.5705 7.00618L61.3738 6.10408L61.3183 6.11619C61.2524 6.41405 61.1083 6.68657 60.8859 6.93374C60.6631 7.1786 60.3504 7.3449 59.948 7.43266C59.6149 7.50529 59.3029 7.49699 59.0121 7.40775C58.7207 7.3162 58.4688 7.13853 58.2562 6.87474C58.0431 6.60863 57.8871 6.24889 57.7882 5.79553L57.0499 2.40919L57.8687 2.23065L58.595 5.56147C58.6797 5.95007 58.856 6.23632 59.1239 6.42022C59.394 6.60361 59.6991 6.65824 60.0392 6.58409C60.2427 6.53971 60.4384 6.44253 60.6262 6.29254C60.8163 6.14205 60.9596 5.94361 61.0561 5.69723C61.1549 5.45034 61.168 5.16035 61.0954 4.82727ZM63.8951 6.54701L63.059 1.15693L63.8591 1.03282L63.9854 1.84695L64.0415 1.83824C64.0984 1.5563 64.2427 1.31233 64.4742 1.10631C64.7058 0.90029 64.983 0.772243 65.3059 0.722166C65.3667 0.712731 65.4429 0.702107 65.5345 0.690295C65.6261 0.678482 65.6957 0.671286 65.7432 0.668708L65.8738 1.51091C65.8447 1.50825 65.7787 1.5077 65.6759 1.50926C65.5751 1.50813 65.4697 1.51609 65.3598 1.53314C65.0978 1.57379 64.8724 1.66505 64.6835 1.80694C64.4967 1.94612 64.3585 2.12089 64.2689 2.33123C64.1814 2.53887 64.1564 2.76434 64.1942 3.00764L64.7233 6.41856L63.8951 6.54701ZM69.1879 6.034C68.8434 6.06137 68.5255 6.02131 68.2344 5.91382C67.943 5.80396 67.7049 5.6317 67.52 5.39702C67.335 5.15999 67.2284 4.86447 67.2003 4.51047C67.1755 4.19895 67.2168 3.94156 67.3242 3.73829C67.4313 3.53266 67.5832 3.36624 67.7797 3.23901C67.9762 3.11178 68.1962 3.01118 68.4397 2.93722C68.6853 2.86071 68.9331 2.7959 69.183 2.74281C69.51 2.67408 69.7753 2.62094 69.979 2.5834C70.1848 2.5433 70.3327 2.49236 70.4228 2.43058C70.5153 2.36862 70.5561 2.27038 70.5455 2.13586L70.5432 2.10754C70.5155 1.75826 70.3983 1.49445 70.1918 1.31612C69.9876 1.13759 69.6932 1.06361 69.3085 1.09417C68.9097 1.12585 68.6039 1.23801 68.3912 1.43064C68.1785 1.62328 68.0341 1.82237 67.9578 2.02792L67.1423 1.80771C67.2577 1.46606 67.426 1.19383 67.6474 0.991001C67.871 0.785628 68.1202 0.635207 68.3953 0.53974C68.6725 0.441725 68.948 0.381845 69.2217 0.360099C69.3964 0.346227 69.5986 0.351532 69.8286 0.376016C70.0607 0.397952 70.288 0.464204 70.5105 0.574772C70.7354 0.685152 70.9289 0.863338 71.0909 1.10933C71.2529 1.35532 71.3511 1.69426 71.3854 2.12613L71.67 5.7086L70.8345 5.77496L70.776 5.03864L70.7336 5.04202C70.6863 5.16452 70.6019 5.29827 70.4804 5.44329C70.359 5.58831 70.1922 5.71674 69.9803 5.82857C69.7683 5.9404 69.5042 6.00888 69.1879 6.034ZM69.2558 5.2734C69.5862 5.24715 69.8595 5.16013 70.0757 5.01234C70.2943 4.86435 70.4533 4.68311 70.5526 4.46861C70.6543 4.25391 70.6962 4.03329 70.6782 3.80673L70.6174 3.04209C70.5854 3.08738 70.5106 3.13251 70.3931 3.17747C70.2777 3.21988 70.1432 3.26026 69.9895 3.29859C69.8379 3.33437 69.6898 3.36752 69.545 3.39802C69.4023 3.42597 69.2866 3.44941 69.1979 3.46834C68.983 3.5139 68.7837 3.57605 68.6 3.65476C68.4184 3.73093 68.2748 3.83615 68.1691 3.97041C68.0655 4.10213 68.0222 4.27419 68.0391 4.48659C68.0621 4.77687 68.1869 4.98782 68.4135 5.11944C68.6423 5.24851 68.923 5.29983 69.2558 5.2734ZM74.0172 2.35942L74.033 5.64063L73.195 5.64468L73.1686 0.190201L73.9782 0.186287L73.9824 1.03855L74.0534 1.03821C74.1799 0.760603 74.3729 0.537129 74.6325 0.367785C74.8921 0.196073 75.2279 0.109222 75.6398 0.10723C76.0091 0.105444 76.3326 0.179639 76.6104 0.329813C76.8881 0.47762 77.1046 0.703848 77.26 1.0085C77.4153 1.31078 77.4941 1.69393 77.4963 2.15794L77.5131 5.62381L76.675 5.62786L76.6586 2.21881C76.6565 1.79031 76.5436 1.45704 76.3199 1.21901C76.0962 0.978613 75.7902 0.859352 75.402 0.861229C75.1345 0.862523 74.8956 0.92168 74.6855 1.0387C74.4777 1.15571 74.314 1.32578 74.1943 1.54889C74.0747 1.77201 74.0156 2.04219 74.0172 2.35942ZM81.2396 5.96968C80.7299 5.92917 80.3005 5.77394 79.9515 5.50396C79.6024 5.23399 79.3456 4.87991 79.1809 4.44172C79.0162 4.00353 78.9555 3.51304 78.9986 2.97024C79.0425 2.41801 79.1827 1.93873 79.4192 1.53242C79.6583 1.12394 79.9702 0.815051 80.3549 0.605758C80.7422 0.394293 81.1813 0.308063 81.6722 0.347068C82.0545 0.377446 82.3934 0.475624 82.689 0.641601C82.9845 0.807578 83.2201 1.02579 83.3957 1.29623C83.5713 1.56667 83.6693 1.87369 83.6895 2.21728L82.854 2.15089C82.81 1.89803 82.6858 1.6673 82.4815 1.4587C82.2798 1.24793 81.9948 1.12792 81.6267 1.09867C81.301 1.07279 81.0087 1.13506 80.7498 1.28548C80.4934 1.43372 80.2845 1.6558 80.1233 1.95173C79.9646 2.24547 79.8689 2.59767 79.8363 3.00831C79.8029 3.42838 79.8399 3.79943 79.9473 4.12145C80.0571 4.44366 80.2267 4.70056 80.4561 4.89215C80.6878 5.08393 80.9689 5.19295 81.2993 5.2192C81.5164 5.23646 81.7165 5.21435 81.8995 5.1529C82.0825 5.09144 82.2409 4.99479 82.3749 4.86294C82.5089 4.7311 82.6097 4.56811 82.6774 4.374L83.5128 4.44038C83.4401 4.75759 83.3003 5.03741 83.0934 5.27983C82.8891 5.52008 82.6287 5.70363 82.3123 5.83048C81.9984 5.95516 81.6408 6.00156 81.2396 5.96968ZM80.8544 5.79658L81.5483 5.85171L81.4691 6.13041C81.6509 6.17335 81.8136 6.26346 81.957 6.40073C82.1003 6.54036 82.161 6.74823 82.139 7.02435C82.1149 7.32879 81.9689 7.56655 81.7012 7.73765C81.4357 7.91129 81.0586 7.9787 80.5701 7.93988L80.5857 7.3854C80.8052 7.40283 80.9897 7.38187 81.1393 7.32251C81.291 7.2657 81.3734 7.15587 81.3863 6.99304C81.3993 6.8302 81.3479 6.71449 81.2322 6.64593C81.1165 6.57737 80.925 6.52178 80.6577 6.47916L80.8544 5.79658ZM86.1644 6.55697C85.823 6.5033 85.5232 6.39029 85.2651 6.21792C85.0074 6.04321 84.816 5.82021 84.6909 5.54891C84.5661 5.27528 84.5313 4.96306 84.5864 4.61225C84.635 4.30354 84.7351 4.06285 84.8869 3.89019C85.039 3.71519 85.2254 3.58872 85.4462 3.51078C85.6669 3.43284 85.9043 3.38627 86.1583 3.37107C86.415 3.35391 86.6711 3.34862 86.9265 3.35521C87.2605 3.36457 87.5309 3.37471 87.7377 3.38564C87.9472 3.3946 88.1029 3.37954 88.2049 3.34045C88.3093 3.30173 88.3719 3.21572 88.3929 3.08241L88.3973 3.05434C88.4517 2.70821 88.3992 2.42438 88.2399 2.20283C88.083 1.98165 87.8139 1.8411 87.4327 1.78119C87.0374 1.71907 86.7139 1.7569 86.4622 1.89468C86.2105 2.03246 86.0236 2.1924 85.9015 2.37452L85.1598 1.97037C85.3516 1.66501 85.5788 1.43949 85.8413 1.29383C86.1066 1.1462 86.384 1.058 86.6737 1.02924C86.9661 0.998507 87.248 1.00446 87.5193 1.0471C87.6924 1.0743 87.8878 1.12659 88.1057 1.20397C88.3263 1.27938 88.532 1.39678 88.7226 1.55615C88.9156 1.71589 89.0622 1.93424 89.1624 2.21122C89.2627 2.48819 89.2792 2.84067 89.2119 3.26866L88.654 6.81883L87.8261 6.68871L87.9407 5.95903L87.8987 5.95241C87.8241 6.06053 87.7109 6.17095 87.559 6.28367C87.4071 6.39639 87.215 6.48244 86.9828 6.5418C86.7506 6.60117 86.4778 6.60622 86.1644 6.55697ZM86.4076 5.83311C86.735 5.88456 87.0211 5.86362 87.2658 5.77028C87.5129 5.6773 87.7097 5.53809 87.8563 5.35263C88.0052 5.16754 88.0973 4.96274 88.1326 4.73822L88.2517 3.98048C88.21 4.01706 88.1268 4.04352 88.002 4.05985C87.8799 4.07422 87.7397 4.08213 87.5813 4.0836C87.4256 4.08309 87.2738 4.0808 87.1258 4.07672C86.9806 4.07067 86.8626 4.06651 86.7719 4.06424C86.5523 4.05848 86.344 4.07248 86.147 4.10622C85.9527 4.13799 85.7885 4.20684 85.6544 4.31278C85.523 4.41675 85.4408 4.57398 85.4077 4.78447C85.3625 5.07213 85.4348 5.30635 85.6244 5.48714C85.8168 5.66596 86.0779 5.78128 86.4076 5.83311ZM92.3111 9.73815L94.4133 2.5388L95.1905 2.76574L94.9476 3.59748L95.0431 3.62535C95.1287 3.55171 95.2444 3.4597 95.39 3.34932C95.5386 3.23734 95.7281 3.15454 95.9583 3.10092C96.1915 3.04569 96.4785 3.06784 96.8193 3.16738C97.2602 3.29611 97.6166 3.5198 97.8886 3.83845C98.1606 4.15709 98.3318 4.54621 98.4023 5.00579C98.4728 5.46538 98.4278 5.97015 98.2672 6.5201C98.1053 7.07459 97.8706 7.52769 97.5632 7.8794C97.2565 8.22883 96.9036 8.46613 96.5045 8.59129C96.106 8.71418 95.6887 8.71192 95.2523 8.58451C94.916 8.4863 94.663 8.35199 94.4932 8.18158C94.3242 8.00889 94.206 7.83504 94.1387 7.66002C94.0721 7.48273 94.0232 7.33773 93.992 7.22503L93.9238 7.20512L93.1155 9.97306L92.3111 9.73815ZM94.4397 5.38767C94.3242 5.78309 94.2803 6.14884 94.308 6.48493C94.3363 6.81874 94.4369 7.10339 94.6098 7.33886C94.7834 7.57205 95.0316 7.73577 95.3543 7.83C95.6906 7.92821 95.9971 7.92153 96.2739 7.80997C96.5536 7.6968 96.7943 7.50568 96.9962 7.23661C97.201 6.96593 97.3579 6.64425 97.4667 6.27156C97.5742 5.90341 97.6143 5.55503 97.5869 5.22642C97.5625 4.89621 97.4618 4.61156 97.285 4.37249C97.1111 4.13182 96.8538 3.96171 96.5129 3.86217C96.1856 3.76662 95.8864 3.76927 95.6153 3.87013C95.3448 3.96872 95.1096 4.14914 94.9097 4.41139C94.7105 4.67137 94.5538 4.99679 94.4397 5.38767ZM98.6965 9.53915L98.9277 8.94322L102.116 7.36144C102.49 7.1764 102.803 7.0109 103.055 6.86494C103.308 6.71677 103.512 6.56472 103.666 6.40879C103.824 6.25151 103.943 6.06913 104.023 5.86166C104.116 5.62328 104.139 5.39465 104.091 5.17576C104.047 4.95773 103.944 4.76316 103.785 4.59205C103.625 4.42093 103.423 4.28786 103.178 4.19282C102.917 4.09179 102.669 4.05768 102.433 4.09048C102.2 4.12194 101.993 4.21313 101.812 4.36405C101.634 4.51584 101.495 4.72085 101.395 4.97908L100.613 4.67599C100.768 4.2787 100.994 3.9655 101.294 3.73639C101.594 3.50728 101.934 3.37007 102.315 3.32476C102.698 3.28031 103.087 3.33471 103.482 3.48797C103.879 3.64209 104.198 3.86253 104.44 4.14928C104.682 4.43604 104.835 4.7556 104.899 5.10797C104.963 5.46033 104.927 5.81088 104.792 6.15962C104.695 6.40903 104.555 6.63537 104.372 6.83864C104.192 7.04056 103.935 7.24438 103.602 7.45011C103.271 7.65448 102.83 7.8899 102.28 8.15636L100.125 9.19448L100.105 9.24745L103.257 10.4701L102.974 11.1985L98.6965 9.53915ZM103.424 13.6297L106.728 6.89676L107.455 7.25346L107.073 8.03132L107.163 8.07512C107.26 8.01723 107.389 7.94639 107.552 7.86259C107.717 7.77772 107.918 7.72859 108.154 7.71519C108.393 7.7007 108.672 7.77169 108.991 7.92814C109.403 8.13047 109.716 8.4119 109.93 8.77242C110.143 9.13293 110.245 9.54563 110.236 10.0105C110.227 10.4754 110.096 10.965 109.843 11.4793C109.589 11.9979 109.28 12.4041 108.917 12.6979C108.555 12.9897 108.167 13.163 107.752 13.218C107.338 13.2708 106.928 13.1971 106.519 12.9968C106.205 12.8425 105.979 12.6668 105.841 12.4699C105.704 12.2708 105.617 12.0792 105.581 11.8953C105.545 11.7092 105.522 11.558 105.511 11.4416L105.447 11.4103L104.176 13.9989L103.424 13.6297ZM106.266 9.70806C106.085 10.0779 105.979 10.4307 105.949 10.7665C105.919 11.1003 105.97 11.3979 106.1 11.6596C106.231 11.919 106.447 12.1228 106.749 12.2709C107.064 12.4253 107.367 12.4712 107.659 12.4087C107.953 12.3451 108.223 12.198 108.468 11.9675C108.717 11.7359 108.926 11.4459 109.097 11.0973C109.266 10.753 109.365 10.4166 109.395 10.0882C109.427 9.75869 109.377 9.46102 109.243 9.1952C109.113 8.9283 108.889 8.71662 108.57 8.56017C108.264 8.40998 107.969 8.36136 107.684 8.41429C107.401 8.4651 107.138 8.60257 106.897 8.82671C106.656 9.04872 106.446 9.34251 106.266 9.70806ZM116.719 14.7231L116.293 15.3779L113.626 13.6425L114.052 12.9877L116.719 14.7231ZM123.943 19.3553L123.226 19.0429C123.269 18.9158 123.292 18.7772 123.296 18.6272C123.303 18.4768 123.27 18.3218 123.199 18.1623C123.128 18.0029 122.998 17.8459 122.809 17.6913C122.551 17.4797 122.287 17.3629 122.017 17.3408C121.751 17.3184 121.544 17.3979 121.395 17.5791C121.263 17.7403 121.217 17.9155 121.258 18.105C121.299 18.2944 121.418 18.5223 121.616 18.7886L122.116 19.4557C122.418 19.8564 122.584 20.2268 122.615 20.567C122.647 20.9053 122.542 21.2219 122.3 21.5167C122.102 21.7584 121.855 21.9174 121.56 21.9937C121.267 22.0716 120.951 22.0642 120.614 21.9714C120.277 21.8787 119.945 21.698 119.617 21.4294C119.186 21.0767 118.907 20.6915 118.778 20.2736C118.649 19.8557 118.694 19.4366 118.913 19.0162L119.655 19.3666C119.527 19.6417 119.498 19.9028 119.568 20.1498C119.64 20.3984 119.809 20.6315 120.074 20.8491C120.376 21.0967 120.668 21.2293 120.951 21.2467C121.237 21.2637 121.454 21.1816 121.603 21.0004C121.723 20.8539 121.772 20.6892 121.751 20.5063C121.731 20.3215 121.635 20.1174 121.463 19.8939L120.895 19.1528C120.584 18.7446 120.416 18.3701 120.392 18.0293C120.372 17.6881 120.481 17.372 120.72 17.0808C120.915 16.8428 121.154 16.687 121.438 16.6135C121.724 16.5414 122.025 16.5485 122.344 16.6347C122.663 16.7225 122.972 16.8879 123.268 17.131C123.686 17.4732 123.939 17.8333 124.027 18.2115C124.116 18.5912 124.088 18.9725 123.943 19.3553ZM123.846 25.1984C123.466 24.835 123.219 24.4377 123.104 24.0065C122.992 23.5753 123.007 23.1371 123.148 22.692C123.292 22.2468 123.557 21.8224 123.944 21.4187C124.33 21.0151 124.744 20.7297 125.186 20.5626C125.631 20.3954 126.069 20.3523 126.499 20.4333C126.933 20.5142 127.328 20.7249 127.683 21.0654C127.889 21.2618 128.058 21.49 128.193 21.7499C128.328 22.0098 128.403 22.2953 128.42 22.6064C128.439 22.9157 128.377 23.2428 128.233 23.5875C128.09 23.9322 127.843 24.2885 127.491 24.6562L127.245 24.9127L124.208 22.0057L124.709 21.4823L127.13 23.8001C127.343 23.5778 127.489 23.3368 127.567 23.0772C127.646 22.8193 127.653 22.5621 127.587 22.3057C127.523 22.0509 127.382 21.8188 127.163 21.6092C126.922 21.3784 126.656 21.2386 126.365 21.1897C126.077 21.1408 125.796 21.1662 125.52 21.266C125.244 21.3659 125.003 21.5244 124.795 21.7416L124.461 22.0905C124.176 22.3881 123.986 22.6895 123.89 22.9947C123.798 23.2998 123.793 23.5946 123.875 23.8791C123.958 24.1619 124.122 24.4204 124.366 24.6545C124.525 24.8067 124.69 24.922 124.861 25.0003C125.035 25.0785 125.213 25.1173 125.394 25.1167C125.576 25.1143 125.759 25.0693 125.941 24.9816L126.369 25.7056C126.117 25.8451 125.847 25.9205 125.557 25.9319C125.269 25.9415 124.979 25.886 124.685 25.7652C124.392 25.6426 124.113 25.4537 123.846 25.1984ZM126.27 30.6813C126.001 30.378 125.81 30.0827 125.695 29.7956C125.579 29.51 125.519 29.2388 125.516 28.982C125.513 28.7286 125.545 28.4966 125.612 28.286L126.405 28.4757C126.381 28.5983 126.359 28.7454 126.34 28.917C126.32 29.0902 126.341 29.2835 126.403 29.497C126.465 29.7138 126.605 29.9455 126.823 30.192C127.115 30.5219 127.435 30.7236 127.785 30.7971C128.134 30.8706 128.479 30.7568 128.819 30.4558L129.649 29.7219L129.602 29.6687C129.487 29.6885 129.337 29.7044 129.152 29.7165C128.97 29.7287 128.767 29.6936 128.542 29.611C128.32 29.5286 128.092 29.3544 127.857 29.0883C127.565 28.7584 127.382 28.3932 127.306 27.9927C127.231 27.594 127.275 27.1867 127.439 26.7707C127.603 26.3565 127.898 25.9613 128.324 25.5849C128.743 25.2149 129.172 24.9662 129.613 24.8391C130.055 24.7103 130.478 24.7019 130.88 24.8139C131.284 24.9243 131.638 25.1515 131.942 25.4956C132.178 25.7617 132.32 26.012 132.369 26.2464C132.422 26.4811 132.429 26.6895 132.391 26.8717C132.356 27.0541 132.324 27.1996 132.294 27.3085L132.35 27.3723L132.999 26.7984L133.536 27.405L129.332 31.1213C128.981 31.4318 128.625 31.6044 128.264 31.6392C127.902 31.6774 127.552 31.608 127.212 31.4311C126.872 31.2576 126.558 31.0076 126.27 30.6813ZM128.496 28.6748C128.719 28.9267 128.965 29.0886 129.234 29.1605C129.503 29.2324 129.785 29.2179 130.082 29.1171C130.378 29.0162 130.677 28.8325 130.979 28.566C131.273 28.3057 131.494 28.0316 131.64 27.7438C131.787 27.4559 131.848 27.1687 131.822 26.882C131.796 26.5952 131.67 26.3242 131.444 26.0688C131.209 25.8027 130.946 25.6406 130.654 25.5824C130.364 25.526 130.066 25.5538 129.761 25.6658C129.457 25.7796 129.167 25.9588 128.89 26.2034C128.606 26.4543 128.394 26.7205 128.255 27.0021C128.118 27.2838 128.065 27.5674 128.097 27.8527C128.131 28.1383 128.264 28.4123 128.496 28.6748ZM134.255 33.6314L136.841 31.7059L137.342 32.3782L132.966 35.6353L132.466 34.963L133.207 34.4117L133.173 34.3661C132.874 34.429 132.566 34.4101 132.249 34.3096C131.934 34.2076 131.654 33.9914 131.408 33.6609C131.204 33.3875 131.083 33.0999 131.045 32.7981C131.008 32.495 131.066 32.1921 131.218 31.8897C131.373 31.5858 131.636 31.2953 132.008 31.0182L134.789 28.9486L135.289 29.6208L132.554 31.6565C132.235 31.894 132.047 32.1727 131.99 32.4926C131.935 32.8143 132.011 33.1148 132.219 33.394C132.343 33.5611 132.512 33.6992 132.726 33.8084C132.942 33.9195 133.182 33.9682 133.446 33.9545C133.712 33.9426 133.981 33.8349 134.255 33.6314ZM133.838 36.8954L138.428 33.9486L138.866 34.6299L138.172 35.075L138.203 35.1228C138.484 35.0607 138.765 35.0938 139.048 35.2221C139.33 35.3504 139.559 35.5521 139.736 35.827C139.769 35.8788 139.809 35.9442 139.857 36.0231C139.905 36.1021 139.94 36.1628 139.961 36.2052L139.244 36.6657C139.235 36.6379 139.209 36.5774 139.166 36.484C139.126 36.3914 139.076 36.2983 139.016 36.2046C138.873 35.9815 138.698 35.8124 138.492 35.6972C138.289 35.5827 138.073 35.5271 137.844 35.5303C137.619 35.5343 137.403 35.6028 137.196 35.7359L134.291 37.6006L133.838 36.8954ZM136.461 41.5224C136.295 41.2193 136.202 40.9129 136.181 40.6033C136.161 40.2925 136.221 40.0047 136.36 39.74C136.5 39.4741 136.726 39.2558 137.037 39.0852C137.311 38.935 137.563 38.8673 137.793 38.882C138.024 38.8956 138.238 38.966 138.435 39.0931C138.631 39.2203 138.813 39.3798 138.98 39.5717C139.151 39.7645 139.311 39.964 139.462 40.1702C139.659 40.4404 139.816 40.6607 139.933 40.8311C140.054 41.0025 140.161 41.1166 140.254 41.1735C140.349 41.2324 140.455 41.2295 140.574 41.1647L140.599 41.151C140.906 40.9827 141.099 40.7678 141.177 40.5064C141.256 40.247 141.203 39.9481 141.017 39.6096C140.825 39.2588 140.598 39.0257 140.335 38.9106C140.072 38.7954 139.831 38.7451 139.612 38.7597L139.479 37.9256C139.838 37.8909 140.156 37.933 140.431 38.0519C140.71 38.1718 140.95 38.3376 141.149 38.5494C141.352 38.7622 141.52 38.989 141.652 39.2299C141.736 39.3835 141.814 39.5702 141.886 39.79C141.961 40.0108 141.993 40.2453 141.983 40.4936C141.975 40.7439 141.892 40.9934 141.733 41.2419C141.575 41.4905 141.306 41.7188 140.926 41.927L137.775 43.6536L137.372 42.9186L138.02 42.5637L137.999 42.5263C137.868 42.5334 137.712 42.5112 137.53 42.4597C137.347 42.4083 137.162 42.3088 136.973 42.1612C136.784 42.0136 136.614 41.8007 136.461 41.5224ZM137.183 41.2729C137.342 41.5635 137.534 41.7773 137.757 41.914C137.982 42.0529 138.212 42.1237 138.448 42.1265C138.686 42.1313 138.904 42.0792 139.104 41.97L139.776 41.6014C139.722 41.5908 139.65 41.541 139.561 41.4522C139.475 41.3643 139.383 41.2581 139.285 41.1336C139.19 41.01 139.1 40.8884 139.012 40.7688C138.928 40.6501 138.86 40.5541 138.806 40.4809C138.677 40.3035 138.538 40.1471 138.391 40.0118C138.247 39.8773 138.093 39.7893 137.927 39.7479C137.764 39.7074 137.59 39.7383 137.403 39.8407C137.147 39.9806 137.006 40.1808 136.979 40.4414C136.955 40.703 137.023 40.9801 137.183 41.2729ZM141.791 44.4463L138.796 45.7862L138.453 45.0212L143.432 42.7939L143.763 43.533L142.985 43.881L143.014 43.9458C143.319 43.9494 143.602 44.0357 143.861 44.2048C144.123 44.3729 144.338 44.645 144.507 45.021C144.657 45.3582 144.72 45.6841 144.695 45.9988C144.672 46.3125 144.552 46.602 144.336 46.8672C144.123 47.1314 143.804 47.3582 143.38 47.5477L140.217 48.9629L139.874 48.1979L142.986 46.8059C143.378 46.6309 143.637 46.393 143.764 46.0923C143.894 45.7905 143.879 45.4624 143.721 45.108C143.612 44.8638 143.461 44.6692 143.269 44.5243C143.078 44.3815 142.856 44.3004 142.604 44.281C142.351 44.2617 142.08 44.3168 141.791 44.4463ZM141.421 52.5065C141.249 52.0247 141.215 51.5694 141.319 51.1405C141.423 50.7116 141.641 50.3324 141.973 50.003C142.306 49.6736 142.729 49.4176 143.242 49.2351C143.764 49.0493 144.258 48.9814 144.726 49.0311C145.196 49.0823 145.606 49.2407 145.954 49.5062C146.305 49.7732 146.564 50.1387 146.729 50.6026C146.857 50.9639 146.906 51.3134 146.876 51.651C146.845 51.9885 146.742 52.2927 146.567 52.5636C146.392 52.8344 146.152 53.0493 145.847 53.2082L145.566 52.4186C145.778 52.2751 145.938 52.0674 146.045 51.7957C146.155 51.5254 146.148 51.2163 146.024 50.8684C145.915 50.5606 145.738 50.3193 145.495 50.1444C145.255 49.9711 144.967 49.8713 144.631 49.8451C144.298 49.8203 143.938 49.877 143.549 50.0151C143.152 50.1564 142.829 50.3418 142.579 50.5715C142.33 50.8034 142.165 51.0632 142.084 51.3509C142.003 51.6408 142.019 51.9418 142.13 52.2541C142.203 52.4593 142.305 52.6328 142.436 52.7747C142.567 52.9166 142.72 53.0217 142.895 53.0901C143.07 53.1585 143.26 53.1838 143.465 53.1662L143.746 53.9558C143.426 54.0191 143.114 54.006 142.808 53.9163C142.505 53.828 142.231 53.6654 141.986 53.4285C141.744 53.193 141.555 52.8857 141.421 52.5065ZM141.421 52.0842L141.654 52.7399L141.368 52.7816C141.403 52.9651 141.387 53.1504 141.32 53.3374C141.252 53.5253 141.087 53.6656 140.826 53.7585C140.538 53.8608 140.261 53.8249 139.996 53.6505C139.729 53.4791 139.513 53.1626 139.349 52.7009L139.861 52.4884C139.935 52.6959 140.03 52.8557 140.145 52.968C140.259 53.0832 140.393 53.1135 140.547 53.0587C140.701 53.004 140.785 52.9098 140.8 52.7762C140.816 52.6426 140.788 52.4451 140.718 52.1837L141.421 52.0842ZM142.876 57.2463C142.788 56.9119 142.772 56.5919 142.827 56.2864C142.884 55.9803 143.012 55.7157 143.21 55.4925C143.411 55.2687 143.683 55.1119 144.027 55.0221C144.329 54.943 144.59 54.9385 144.809 55.0085C145.03 55.0779 145.221 55.1982 145.38 55.3693C145.54 55.5405 145.678 55.7394 145.793 55.9661C145.912 56.1946 146.019 56.4271 146.115 56.6638C146.24 56.9737 146.339 57.2256 146.412 57.4195C146.487 57.615 146.563 57.7517 146.64 57.8296C146.717 57.9097 146.821 57.9327 146.952 57.8986L146.979 57.8914C147.318 57.8028 147.557 57.6412 147.697 57.4066C147.837 57.1742 147.858 56.8714 147.76 56.4981C147.659 56.111 147.495 55.8296 147.268 55.6541C147.041 55.4785 146.82 55.3712 146.604 55.3321L146.678 54.4907C147.034 54.5443 147.332 54.6623 147.57 54.8446C147.812 55.0287 148.003 55.2477 148.146 55.5017C148.291 55.7574 148.398 56.0181 148.468 56.2838C148.512 56.4533 148.542 56.6533 148.558 56.884C148.578 57.1164 148.552 57.3518 148.482 57.5902C148.413 57.831 148.272 58.0527 148.058 58.2554C147.844 58.4581 147.528 58.6142 147.109 58.7238L143.632 59.6327L143.42 58.8218L144.134 58.635L144.124 58.5938C143.995 58.5688 143.848 58.5092 143.684 58.4151C143.52 58.3209 143.364 58.1793 143.217 57.9903C143.07 57.8012 142.956 57.5532 142.876 57.2463ZM143.637 57.1796C143.72 57.5002 143.854 57.754 144.037 57.941C144.222 58.1302 144.428 58.2549 144.656 58.3151C144.886 58.3775 145.11 58.38 145.33 58.3225L146.072 58.1285C146.022 58.1049 145.964 58.0392 145.9 57.9314C145.838 57.8253 145.774 57.6999 145.709 57.5553C145.648 57.4124 145.589 57.2724 145.534 57.1351C145.481 56.9996 145.438 56.8898 145.403 56.8058C145.321 56.6023 145.225 56.4169 145.115 56.2499C145.008 56.0845 144.879 55.9616 144.729 55.8811C144.581 55.8022 144.404 55.7898 144.198 55.8437C143.916 55.9173 143.73 56.0772 143.64 56.3234C143.553 56.5712 143.552 56.8566 143.637 57.1796ZM142.449 64.1615L149.881 63.1536L149.99 63.9559L149.131 64.0724L149.144 64.1709C149.247 64.2192 149.378 64.2874 149.538 64.3756C149.7 64.4658 149.853 64.6052 149.996 64.7937C150.141 64.9842 150.238 65.2554 150.285 65.6073C150.347 66.0624 150.288 66.479 150.107 66.8571C149.927 67.2352 149.641 67.5499 149.25 67.8012C148.859 68.0525 148.379 68.2167 147.811 68.2937C147.239 68.3713 146.73 68.3412 146.283 68.2035C145.839 68.0654 145.479 67.8395 145.202 67.5258C144.928 67.2118 144.76 66.8296 144.699 66.3792C144.652 66.032 144.672 65.7462 144.759 65.5218C144.847 65.2971 144.958 65.1185 145.091 64.9858C145.226 64.8529 145.338 64.7492 145.428 64.6748L145.419 64.6045L142.562 64.992L142.449 64.1615ZM147.289 64.3365C146.881 64.3919 146.529 64.5005 146.233 64.6625C145.94 64.8241 145.721 65.0318 145.576 65.2856C145.433 65.539 145.385 65.8323 145.43 66.1654C145.477 66.5126 145.608 66.79 145.822 66.9974C146.039 67.2069 146.312 67.3491 146.64 67.4241C146.97 67.5011 147.328 67.5135 147.713 67.4613C148.093 67.4098 148.427 67.3047 148.717 67.146C149.008 66.9894 149.227 66.7817 149.374 66.5229C149.523 66.2662 149.574 65.9619 149.526 65.61C149.48 65.2721 149.356 64.9999 149.154 64.7932C148.954 64.5862 148.693 64.4448 148.372 64.3688C148.054 64.2926 147.693 64.2818 147.289 64.3365ZM145.228 69.9139L145.866 69.8829L148.608 72.1528C148.929 72.4193 149.207 72.638 149.443 72.809C149.681 72.9799 149.903 73.1042 150.108 73.182C150.316 73.2619 150.531 73.2965 150.753 73.2857C151.009 73.2732 151.227 73.201 151.408 73.0689C151.589 72.9392 151.725 72.7667 151.816 72.5513C151.908 72.3359 151.947 72.097 151.934 71.8345C151.921 71.5555 151.851 71.3147 151.725 71.1123C151.601 70.9121 151.434 70.7602 151.223 70.6568C151.012 70.5556 150.768 70.5118 150.491 70.5253L150.45 69.6882C150.876 69.6675 151.254 69.7474 151.585 69.928C151.917 70.1086 152.18 70.3636 152.376 70.693C152.573 71.0248 152.681 71.4023 152.702 71.8256C152.722 72.2512 152.651 72.6327 152.487 72.9702C152.324 73.3076 152.094 73.5771 151.798 73.7788C151.502 73.9804 151.167 74.0904 150.793 74.1085C150.526 74.1216 150.263 74.0858 150.002 74.0013C149.745 73.919 149.454 73.7672 149.131 73.546C148.809 73.3269 148.415 73.0202 147.948 72.6258L146.124 71.0791L146.067 71.0819L146.231 74.4586L145.451 74.4966L145.228 69.9139ZM143.411 75.8916L150.905 76.1936L150.872 77.0026L150.006 76.9678L150.002 77.0671C150.094 77.1324 150.212 77.2224 150.354 77.3372C150.499 77.4544 150.625 77.6182 150.732 77.8287C150.842 78.0416 150.89 78.3255 150.876 78.6803C150.857 79.1392 150.726 79.5391 150.482 79.8799C150.239 80.2208 149.903 80.4809 149.474 80.6602C149.045 80.8396 148.544 80.9178 147.972 80.8947C147.394 80.8714 146.898 80.7531 146.483 80.5397C146.069 80.3264 145.754 80.0412 145.536 79.6841C145.321 79.3271 145.222 78.9216 145.24 78.4674C145.254 78.1173 145.324 77.8393 145.448 77.6335C145.575 77.4277 145.715 77.271 145.869 77.1635C146.025 77.0561 146.154 76.9736 146.255 76.9161L146.258 76.8451L143.377 76.729L143.411 75.8916ZM148.146 76.907C147.735 76.8904 147.369 76.9361 147.05 77.0441C146.733 77.1521 146.481 77.3185 146.294 77.5432C146.11 77.7679 146.011 78.0483 145.997 78.3842C145.983 78.7343 146.064 79.0301 146.239 79.2717C146.416 79.5158 146.66 79.7033 146.969 79.8343C147.282 79.9677 147.632 80.0422 148.019 80.0579C148.403 80.0733 148.75 80.0281 149.063 79.9222C149.377 79.8188 149.629 79.6524 149.819 79.4231C150.01 79.1963 150.113 78.9054 150.127 78.5506C150.141 78.21 150.066 77.9203 149.903 77.6815C149.742 77.4428 149.51 77.2581 149.207 77.1275C148.907 76.9969 148.553 76.9234 148.146 76.907ZM147.83 88.4734L147.058 88.3541L147.544 85.2096L148.316 85.329L147.83 88.4734ZM146.567 96.9527L146.555 96.1704C146.689 96.1571 146.825 96.1211 146.963 96.0624C147.103 96.0067 147.231 95.9134 147.346 95.7826C147.462 95.6518 147.552 95.4687 147.615 95.2331C147.701 94.9106 147.698 94.622 147.607 94.3673C147.517 94.1154 147.36 93.9593 147.133 93.8988C146.932 93.845 146.753 93.8757 146.598 93.9909C146.442 94.1061 146.283 94.3089 146.123 94.5991L145.721 95.33C145.481 95.7706 145.212 96.0749 144.915 96.243C144.62 96.4117 144.288 96.4468 143.92 96.3484C143.618 96.2677 143.372 96.1087 143.18 95.8713C142.988 95.6362 142.865 95.3459 142.81 95.0005C142.755 94.6551 142.783 94.2776 142.892 93.8682C143.036 93.3307 143.271 92.9171 143.599 92.6272C143.926 92.3373 144.326 92.2053 144.8 92.2314L144.787 93.0512C144.483 93.0486 144.234 93.1301 144.038 93.2958C143.841 93.4638 143.698 93.7135 143.609 94.0452C143.509 94.4226 143.509 94.7436 143.609 95.0082C143.712 95.2758 143.876 95.4398 144.103 95.5003C144.286 95.5492 144.456 95.5261 144.614 95.431C144.774 95.3365 144.92 95.1649 145.053 94.9161L145.493 94.0928C145.737 93.6408 146.009 93.3336 146.309 93.1714C146.612 93.012 146.945 92.9809 147.308 93.0781C147.606 93.1576 147.846 93.3113 148.03 93.5394C148.214 93.7698 148.332 94.0476 148.385 94.3729C148.437 94.7005 148.413 95.0496 148.314 95.4201C148.175 95.9416 147.951 96.3204 147.643 96.5566C147.334 96.7951 146.976 96.9272 146.567 96.9527ZM141.179 99.2655C141.358 98.7712 141.621 98.3844 141.969 98.1049C142.318 97.8284 142.725 97.6646 143.189 97.6134C143.654 97.5653 144.15 97.6363 144.675 97.8263C145.201 98.0164 145.629 98.2796 145.96 98.616C146.293 98.9555 146.51 99.3384 146.61 99.7648C146.711 100.194 146.678 100.64 146.511 101.104C146.414 101.371 146.274 101.618 146.091 101.847C145.908 102.075 145.677 102.26 145.4 102.401C145.124 102.543 144.8 102.618 144.427 102.627C144.053 102.635 143.628 102.553 143.149 102.38L142.815 102.259L144.245 98.3052L144.926 98.5516L143.786 101.704C144.076 101.809 144.355 101.844 144.624 101.811C144.892 101.779 145.13 101.682 145.338 101.518C145.545 101.356 145.7 101.132 145.803 100.847C145.916 100.534 145.937 100.234 145.864 99.9481C145.792 99.6654 145.655 99.4182 145.452 99.2064C145.25 98.9945 145.007 98.8375 144.724 98.7352L144.27 98.5709C143.883 98.4308 143.53 98.3788 143.212 98.415C142.896 98.4541 142.624 98.5686 142.397 98.7583C142.172 98.9488 142.002 99.2032 141.887 99.5215C141.812 99.7286 141.773 99.9261 141.771 100.114C141.77 100.305 141.806 100.483 141.88 100.648C141.956 100.814 142.07 100.963 142.224 101.094L141.735 101.778C141.506 101.604 141.328 101.387 141.2 101.127C141.075 100.868 141.008 100.58 141 100.262C140.994 99.9449 141.053 99.6128 141.179 99.2655ZM137.144 103.7C137.313 103.332 137.506 103.038 137.722 102.817C137.936 102.594 138.16 102.43 138.394 102.324C138.624 102.219 138.849 102.154 139.069 102.13L139.216 102.933C139.094 102.96 138.951 103 138.786 103.052C138.619 103.103 138.451 103.2 138.281 103.343C138.108 103.488 137.952 103.709 137.815 104.008C137.631 104.409 137.576 104.783 137.65 105.132C137.724 105.482 137.968 105.751 138.381 105.941L139.388 106.404L139.417 106.339C139.353 106.242 139.277 106.111 139.191 105.946C139.107 105.785 139.057 105.585 139.041 105.346C139.027 105.11 139.094 104.831 139.243 104.508C139.426 104.108 139.686 103.792 140.022 103.561C140.356 103.331 140.747 103.207 141.193 103.188C141.639 103.172 142.12 103.282 142.636 103.519C143.144 103.752 143.545 104.045 143.839 104.396C144.136 104.749 144.314 105.132 144.374 105.545C144.437 105.959 144.372 106.375 144.18 106.792C144.032 107.115 143.86 107.346 143.666 107.486C143.473 107.629 143.285 107.72 143.103 107.759C142.922 107.801 142.776 107.83 142.664 107.847L142.628 107.924L143.416 108.286L143.078 109.021L137.979 106.679C137.553 106.483 137.252 106.227 137.074 105.911C136.893 105.596 136.815 105.247 136.839 104.865C136.86 104.484 136.962 104.096 137.144 103.7ZM139.879 104.926C139.739 105.231 139.69 105.521 139.733 105.796C139.776 106.071 139.904 106.324 140.116 106.554C140.328 106.785 140.617 106.984 140.982 107.152C141.339 107.316 141.679 107.407 142.002 107.425C142.324 107.443 142.612 107.382 142.863 107.243C143.115 107.103 143.312 106.878 143.455 106.568C143.603 106.246 143.645 105.939 143.58 105.649C143.514 105.361 143.369 105.1 143.143 104.866C142.916 104.634 142.634 104.441 142.299 104.287C141.955 104.128 141.626 104.042 141.312 104.028C140.999 104.017 140.718 104.084 140.47 104.228C140.222 104.375 140.026 104.607 139.879 104.926ZM137.675 112.196L140.483 113.782L140.07 114.512L135.322 111.828L135.734 111.099L136.538 111.553L136.566 111.504C136.387 111.256 136.28 110.967 136.244 110.636C136.21 110.307 136.294 109.963 136.497 109.605C136.664 109.308 136.878 109.081 137.139 108.923C137.401 108.767 137.701 108.697 138.04 108.714C138.38 108.733 138.752 108.856 139.156 109.084L142.174 110.79L141.761 111.519L138.793 109.842C138.447 109.646 138.116 109.587 137.801 109.664C137.484 109.744 137.24 109.935 137.069 110.238C136.966 110.419 136.908 110.63 136.895 110.87C136.881 111.112 136.933 111.351 137.053 111.587C137.171 111.825 137.379 112.028 137.675 112.196ZM134.522 113.134L139.071 116.144L138.624 116.819L137.937 116.365L137.906 116.412C138.076 116.644 138.159 116.915 138.156 117.225C138.152 117.535 138.06 117.826 137.88 118.098C137.846 118.15 137.803 118.213 137.75 118.289C137.697 118.365 137.655 118.421 137.625 118.458L136.914 117.987C136.936 117.968 136.981 117.919 137.049 117.842C137.118 117.768 137.183 117.685 137.244 117.592C137.39 117.371 137.475 117.143 137.497 116.908C137.52 116.676 137.483 116.456 137.388 116.248C137.293 116.044 137.143 115.874 136.938 115.738L134.059 113.833L134.522 113.134ZM131.36 117.412C131.569 117.137 131.81 116.926 132.084 116.779C132.359 116.635 132.646 116.571 132.944 116.589C133.245 116.608 133.536 116.724 133.82 116.938C134.069 117.127 134.234 117.329 134.315 117.544C134.397 117.76 134.421 117.985 134.385 118.216C134.35 118.447 134.279 118.679 134.173 118.91C134.067 119.144 133.951 119.373 133.824 119.595C133.658 119.885 133.522 120.118 133.415 120.296C133.308 120.476 133.248 120.62 133.234 120.729C133.219 120.839 133.265 120.935 133.373 121.016L133.396 121.033C133.675 121.245 133.95 121.332 134.221 121.296C134.49 121.262 134.741 121.091 134.973 120.783C135.215 120.464 135.334 120.161 135.331 119.874C135.328 119.587 135.275 119.347 135.172 119.153L135.879 118.69C136.057 119.003 136.149 119.31 136.154 119.61C136.159 119.914 136.106 120.2 135.994 120.469C135.884 120.741 135.745 120.987 135.58 121.206C135.474 121.346 135.336 121.493 135.165 121.649C134.994 121.808 134.794 121.934 134.563 122.027C134.332 122.122 134.07 122.148 133.778 122.106C133.487 122.064 133.168 121.912 132.823 121.651L129.955 119.484L130.461 118.816L131.05 119.261L131.076 119.227C131.015 119.11 130.971 118.958 130.944 118.771C130.916 118.584 130.931 118.374 130.988 118.141C131.045 117.909 131.169 117.666 131.36 117.412ZM131.884 117.968C131.684 118.233 131.568 118.495 131.535 118.755C131.5 119.016 131.53 119.256 131.624 119.472C131.717 119.691 131.855 119.869 132.036 120.006L132.648 120.468C132.635 120.414 132.651 120.328 132.696 120.211C132.741 120.096 132.8 119.969 132.873 119.828C132.947 119.691 133.021 119.559 133.094 119.43C133.168 119.305 133.227 119.203 133.272 119.124C133.381 118.933 133.467 118.743 133.53 118.553C133.593 118.367 133.61 118.189 133.58 118.021C133.55 117.856 133.45 117.71 133.28 117.581C133.048 117.406 132.807 117.359 132.559 117.441C132.31 117.526 132.085 117.702 131.884 117.968ZM130.857 123.481L128.421 121.283L128.983 120.661L133.031 124.316L132.489 124.917L131.856 124.346L131.809 124.398C131.929 124.679 131.964 124.972 131.914 125.278C131.866 125.585 131.704 125.892 131.428 126.198C131.181 126.472 130.908 126.661 130.61 126.765C130.313 126.871 130 126.879 129.671 126.788C129.343 126.699 129.006 126.499 128.662 126.188L126.089 123.866L126.651 123.244L129.181 125.528C129.499 125.815 129.822 125.957 130.148 125.952C130.477 125.948 130.771 125.802 131.031 125.514C131.21 125.316 131.327 125.099 131.383 124.865C131.436 124.633 131.421 124.397 131.336 124.158C131.252 123.92 131.092 123.694 130.857 123.481ZM123.332 126.398C123.703 126.047 124.106 125.832 124.541 125.754C124.975 125.676 125.41 125.723 125.845 125.894C126.281 126.066 126.686 126.349 127.06 126.745C127.44 127.148 127.702 127.573 127.845 128.021C127.988 128.472 128.008 128.911 127.906 129.336C127.803 129.766 127.573 130.149 127.215 130.488C126.936 130.751 126.636 130.937 126.315 131.045C125.994 131.153 125.674 131.182 125.355 131.131C125.037 131.08 124.743 130.947 124.475 130.731L125.084 130.156C125.301 130.293 125.556 130.355 125.847 130.343C126.139 130.335 126.419 130.204 126.688 129.95C126.925 129.726 127.075 129.467 127.137 129.174C127.198 128.884 127.174 128.581 127.062 128.263C126.95 127.948 126.753 127.641 126.47 127.341C126.181 127.035 125.881 126.814 125.57 126.678C125.257 126.543 124.953 126.497 124.657 126.539C124.359 126.582 124.09 126.718 123.849 126.946C123.69 127.095 123.573 127.258 123.496 127.435C123.419 127.612 123.384 127.795 123.392 127.983C123.4 128.17 123.454 128.354 123.552 128.535L122.943 129.11C122.757 128.844 122.643 128.553 122.601 128.236C122.56 127.924 122.598 127.608 122.716 127.288C122.834 126.971 123.039 126.675 123.332 126.398ZM123.718 126.228L123.212 126.706L123.059 126.461C122.905 126.567 122.729 126.627 122.531 126.642C122.331 126.655 122.136 126.56 121.946 126.359C121.736 126.137 121.658 125.869 121.71 125.556C121.759 125.243 121.962 124.918 122.318 124.581L122.719 124.964C122.559 125.115 122.451 125.266 122.395 125.417C122.335 125.568 122.362 125.703 122.474 125.821C122.586 125.94 122.706 125.979 122.835 125.94C122.963 125.9 123.133 125.795 123.344 125.625L123.718 126.228ZM119.595 129.66C119.864 129.442 120.149 129.296 120.45 129.22C120.752 129.145 121.046 129.153 121.331 129.242C121.618 129.333 121.873 129.516 122.096 129.792C122.293 130.035 122.404 130.271 122.431 130.499C122.459 130.729 122.428 130.952 122.337 131.168C122.247 131.384 122.123 131.592 121.964 131.79C121.804 131.993 121.637 132.186 121.461 132.371C121.23 132.613 121.041 132.807 120.894 132.953C120.747 133.102 120.654 133.228 120.615 133.33C120.574 133.433 120.596 133.537 120.68 133.642L120.698 133.664C120.919 133.937 121.165 134.088 121.436 134.118C121.705 134.15 121.99 134.045 122.29 133.802C122.601 133.55 122.789 133.285 122.856 133.006C122.922 132.726 122.929 132.48 122.876 132.268L123.673 131.988C123.771 132.335 123.786 132.655 123.718 132.947C123.65 133.243 123.529 133.508 123.356 133.743C123.183 133.98 122.99 134.185 122.776 134.358C122.64 134.468 122.47 134.578 122.267 134.688C122.063 134.801 121.838 134.875 121.592 134.91C121.344 134.946 121.084 134.909 120.811 134.797C120.538 134.686 120.266 134.462 119.993 134.125L117.732 131.332L118.384 130.805L118.848 131.379L118.882 131.352C118.851 131.224 118.845 131.066 118.863 130.878C118.882 130.69 118.946 130.49 119.058 130.277C119.17 130.065 119.349 129.859 119.595 129.66ZM119.969 130.325C119.712 130.534 119.536 130.76 119.441 131.005C119.344 131.25 119.316 131.49 119.355 131.723C119.393 131.957 119.483 132.163 119.626 132.34L120.108 132.936C120.109 132.88 120.145 132.801 120.217 132.697C120.288 132.597 120.376 132.488 120.481 132.369C120.586 132.254 120.689 132.143 120.792 132.036C120.893 131.932 120.976 131.847 121.038 131.781C121.19 131.622 121.319 131.458 121.426 131.289C121.532 131.124 121.591 130.956 121.603 130.785C121.613 130.618 121.552 130.452 121.418 130.286C121.235 130.06 121.012 129.956 120.751 129.976C120.489 129.999 120.229 130.115 119.969 130.325ZM113.122 132.102L117.06 138.485L116.371 138.91L115.916 138.173L115.831 138.225C115.829 138.338 115.82 138.486 115.804 138.668C115.788 138.853 115.722 139.049 115.608 139.256C115.493 139.466 115.284 139.665 114.982 139.851C114.591 140.092 114.186 140.207 113.767 140.195C113.349 140.184 112.945 140.05 112.556 139.795C112.168 139.54 111.823 139.168 111.522 138.68C111.219 138.189 111.04 137.711 110.985 137.247C110.931 136.785 110.991 136.364 111.165 135.984C111.341 135.606 111.622 135.298 112.009 135.059C112.307 134.875 112.576 134.777 112.817 134.765C113.058 134.755 113.266 134.784 113.441 134.851C113.618 134.921 113.758 134.981 113.863 135.034L113.923 134.996L112.409 132.542L113.122 132.102ZM114.927 136.597C114.711 136.246 114.469 135.969 114.2 135.764C113.934 135.561 113.655 135.446 113.364 135.416C113.075 135.389 112.787 135.464 112.501 135.64C112.203 135.824 112.002 136.056 111.9 136.336C111.797 136.62 111.777 136.927 111.842 137.257C111.906 137.59 112.039 137.922 112.243 138.252C112.445 138.579 112.676 138.842 112.939 139.042C113.2 139.245 113.479 139.361 113.775 139.39C114.07 139.422 114.369 139.344 114.671 139.158C114.961 138.979 115.16 138.755 115.266 138.486C115.374 138.219 115.398 137.924 115.337 137.6C115.278 137.278 115.141 136.943 114.927 136.597ZM108.992 136.977L109.28 137.548L108.319 140.975C108.206 141.377 108.119 141.72 108.059 142.005C107.999 142.292 107.976 142.545 107.988 142.765C107.999 142.987 108.055 143.197 108.155 143.396C108.27 143.624 108.425 143.794 108.619 143.906C108.811 144.019 109.024 144.073 109.258 144.069C109.492 144.065 109.726 144.004 109.961 143.886C110.21 143.76 110.402 143.599 110.536 143.401C110.668 143.207 110.739 142.993 110.748 142.757C110.755 142.523 110.696 142.283 110.571 142.035L111.319 141.658C111.511 142.039 111.592 142.417 111.561 142.793C111.531 143.169 111.405 143.513 111.183 143.827C110.96 144.141 110.659 144.393 110.28 144.584C109.9 144.775 109.522 144.865 109.147 144.852C108.773 144.84 108.433 144.739 108.128 144.551C107.824 144.362 107.588 144.101 107.419 143.767C107.299 143.528 107.224 143.273 107.196 143.001C107.167 142.732 107.187 142.404 107.258 142.019C107.328 141.636 107.448 141.152 107.619 140.565L108.291 138.269L108.266 138.218L105.247 139.74L104.895 139.042L108.992 136.977ZM102.788 137.748L105.576 144.711L104.824 145.012L104.502 144.207L104.41 144.244C104.388 144.355 104.354 144.499 104.307 144.676C104.259 144.856 104.161 145.038 104.013 145.222C103.864 145.409 103.624 145.569 103.294 145.701C102.868 145.872 102.45 145.915 102.039 145.832C101.628 145.749 101.253 145.549 100.914 145.231C100.575 144.913 100.299 144.488 100.086 143.956C99.8717 143.419 99.7768 142.918 99.8017 142.452C99.8275 141.987 99.9588 141.583 100.196 141.238C100.433 140.896 100.763 140.64 101.185 140.471C101.511 140.341 101.793 140.29 102.031 140.32C102.271 140.351 102.471 140.415 102.632 140.511C102.794 140.61 102.922 140.694 103.016 140.763L103.082 140.737L102.01 138.06L102.788 137.748ZM103.797 142.485C103.644 142.103 103.453 141.788 103.224 141.54C102.996 141.295 102.741 141.133 102.459 141.055C102.179 140.978 101.883 141.003 101.571 141.128C101.245 141.258 101.008 141.452 100.859 141.711C100.709 141.972 100.637 142.271 100.645 142.608C100.65 142.947 100.725 143.297 100.87 143.657C101.012 144.013 101.196 144.312 101.42 144.554C101.643 144.799 101.898 144.961 102.184 145.04C102.47 145.122 102.777 145.097 103.107 144.965C103.423 144.838 103.657 144.652 103.808 144.405C103.96 144.16 104.034 143.873 104.03 143.544C104.026 143.216 103.949 142.863 103.797 142.485ZM93.0773 146.9L92.8764 146.145L95.9513 145.327L96.1522 146.082L93.0773 146.9ZM84.8057 149.165L85.5177 148.841C85.5835 148.958 85.671 149.068 85.7801 149.171C85.8873 149.276 86.024 149.356 86.1903 149.41C86.3565 149.463 86.5602 149.472 86.8012 149.435C87.1312 149.384 87.3946 149.266 87.5913 149.081C87.786 148.897 87.8657 148.69 87.8303 148.458C87.7988 148.252 87.699 148.101 87.531 148.005C87.363 147.908 87.1137 147.845 86.7833 147.814L85.9529 147.74C85.4529 147.696 85.0663 147.572 84.7931 147.367C84.5202 147.165 84.355 146.875 84.2974 146.498C84.2501 146.189 84.2968 145.9 84.4375 145.629C84.5758 145.359 84.7922 145.129 85.0866 144.941C85.3811 144.752 85.7378 144.626 86.1567 144.561C86.7066 144.477 87.1801 144.527 87.5769 144.711C87.9738 144.894 88.2553 145.208 88.4214 145.652L87.6652 145.969C87.5459 145.69 87.371 145.494 87.1406 145.381C86.9078 145.268 86.6217 145.238 86.2824 145.289C85.8962 145.349 85.6022 145.477 85.4002 145.676C85.1963 145.877 85.112 146.094 85.1475 146.325C85.1761 146.512 85.2656 146.659 85.416 146.766C85.5667 146.874 85.7826 146.939 86.0638 146.961L86.9946 147.034C87.5063 147.076 87.8967 147.202 88.166 147.412C88.4333 147.625 88.5954 147.918 88.6523 148.29C88.6988 148.594 88.6545 148.876 88.5194 149.136C88.3821 149.397 88.1749 149.616 87.8981 149.795C87.619 149.974 87.2898 150.093 86.9107 150.151C86.3772 150.233 85.9404 150.18 85.6004 149.992C85.258 149.805 84.9931 149.529 84.8057 149.165ZM80.5263 145.178C81.0505 145.14 81.511 145.223 81.908 145.427C82.3028 145.633 82.6181 145.938 82.8539 146.341C83.0875 146.746 83.2246 147.228 83.2651 147.785C83.3056 148.342 83.2397 148.841 83.0675 149.281C82.8932 149.723 82.6317 150.077 82.283 150.342C81.9322 150.609 81.5112 150.761 81.0201 150.797C80.7367 150.817 80.4535 150.79 80.1704 150.716C79.8872 150.642 79.6246 150.506 79.3825 150.31C79.1406 150.117 78.9397 149.851 78.7799 149.514C78.62 149.177 78.5217 148.754 78.4848 148.246L78.459 147.892L82.6525 147.587L82.705 148.31L79.3616 148.553C79.3839 148.86 79.4652 149.129 79.6055 149.361C79.7434 149.593 79.9296 149.771 80.164 149.894C80.3961 150.017 80.6633 150.068 80.9655 150.046C81.2984 150.022 81.5805 149.918 81.8117 149.735C82.0407 149.555 82.2106 149.329 82.3214 149.057C82.4322 148.786 82.4767 148.5 82.4549 148.2L82.4199 147.718C82.3901 147.307 82.2939 146.964 82.1315 146.689C81.9668 146.416 81.7516 146.214 81.4858 146.084C81.2202 145.956 80.9185 145.905 80.5809 145.929C80.3613 145.945 80.1652 145.99 79.9925 146.065C79.8177 146.141 79.6699 146.247 79.5491 146.382C79.4285 146.519 79.3397 146.684 79.2826 146.878L78.4586 146.71C78.5237 146.43 78.649 146.179 78.8346 145.956C79.0204 145.736 79.2567 145.558 79.5434 145.421C79.8303 145.286 80.1579 145.205 80.5263 145.178ZM74.827 143.309C75.2318 143.312 75.5794 143.367 75.8697 143.474C76.1601 143.578 76.4017 143.715 76.5944 143.884C76.7849 144.052 76.9361 144.231 77.0482 144.421L76.3769 144.884C76.3019 144.784 76.207 144.67 76.092 144.541C75.977 144.41 75.8193 144.296 75.6189 144.2C75.4161 144.101 75.1501 144.05 74.8211 144.048C74.3807 144.044 74.0165 144.148 73.7283 144.359C73.4402 144.569 73.2943 144.902 73.2906 145.357L73.2817 146.465L73.3527 146.465C73.4151 146.366 73.5037 146.244 73.6185 146.098C73.7309 145.954 73.8929 145.827 74.1045 145.715C74.3137 145.605 74.5959 145.552 74.951 145.555C75.3913 145.558 75.7858 145.665 76.1345 145.877C76.4809 146.088 76.7542 146.393 76.9546 146.792C77.1527 147.192 77.2494 147.675 77.2448 148.244C77.2403 148.802 77.1382 149.288 76.9384 149.701C76.7385 150.116 76.4625 150.435 76.1103 150.66C75.7581 150.887 75.3524 150.998 74.8931 150.995C74.538 150.992 74.2568 150.93 74.0494 150.81C73.8396 150.693 73.6797 150.559 73.5697 150.409C73.4572 150.261 73.3706 150.14 73.3098 150.044L73.2246 150.044L73.2176 150.91L72.408 150.904L72.453 145.293C72.4568 144.824 72.5664 144.444 72.7818 144.152C72.9949 143.858 73.2807 143.644 73.6393 143.509C73.9955 143.372 74.3914 143.306 74.827 143.309ZM74.8313 146.306C74.4952 146.304 74.2105 146.378 73.9772 146.53C73.744 146.682 73.5659 146.902 73.4428 147.19C73.3197 147.478 73.2566 147.823 73.2534 148.226C73.2502 148.619 73.3066 148.966 73.4226 149.268C73.5385 149.569 73.7118 149.806 73.9424 149.978C74.1731 150.151 74.4588 150.238 74.7997 150.241C75.1548 150.244 75.4515 150.156 75.6897 149.978C75.9255 149.8 76.1038 149.56 76.2246 149.258C76.343 148.956 76.4037 148.62 76.4067 148.251C76.4097 147.872 76.3532 147.537 76.2372 147.245C76.1188 146.955 75.9431 146.726 75.71 146.559C75.4746 146.393 75.1817 146.309 74.8313 146.306ZM67.2859 147.255L66.973 150.464L66.1389 150.383L66.6682 144.954L67.5023 145.035L67.4127 145.954L67.4693 145.96C67.6234 145.696 67.8442 145.481 68.1316 145.314C68.4188 145.149 68.7674 145.087 69.1774 145.127C69.5167 145.16 69.8111 145.264 70.0605 145.438C70.3097 145.615 70.495 145.861 70.6164 146.177C70.7376 146.496 70.7756 146.886 70.7306 147.348L70.3943 150.798L69.5602 150.716L69.891 147.323C69.9296 146.927 69.8496 146.601 69.6511 146.344C69.4502 146.086 69.1766 145.941 68.8302 145.907C68.6229 145.887 68.4068 145.919 68.1821 146.004C67.955 146.089 67.7577 146.234 67.5902 146.439C67.4204 146.643 67.319 146.915 67.2859 147.255ZM65.1487 144.756L64.2684 150.139L63.4693 150.008L63.6023 149.195L63.5462 149.186C63.4045 149.436 63.1916 149.623 62.9075 149.747C62.6234 149.871 62.3201 149.906 61.9977 149.854C61.9369 149.844 61.8612 149.83 61.7704 149.813C61.6797 149.796 61.6114 149.781 61.5654 149.769L61.7029 148.928C61.7298 148.939 61.7924 148.96 61.8905 148.991C61.986 149.023 62.0886 149.048 62.1984 149.066C62.4601 149.109 62.7027 149.092 62.9263 149.016C63.1471 148.942 63.3328 148.819 63.4833 148.647C63.631 148.476 63.7248 148.27 63.7645 148.027L64.3216 144.62L65.1487 144.756ZM59.9546 143.612C60.2911 143.691 60.5816 143.826 60.8261 144.018C61.07 144.211 61.2443 144.448 61.3488 144.728C61.4527 145.01 61.4641 145.324 61.3829 145.669C61.3115 145.974 61.1937 146.206 61.0294 146.367C60.8647 146.53 60.6693 146.642 60.4434 146.704C60.2174 146.765 59.9772 146.794 59.7228 146.79C59.4655 146.788 59.2098 146.774 58.9556 146.748C58.6232 146.714 58.3543 146.684 58.1489 146.657C57.9407 146.633 57.7842 146.636 57.6796 146.667C57.5727 146.698 57.5038 146.779 57.4729 146.911L57.4664 146.938C57.3863 147.28 57.4174 147.566 57.5597 147.799C57.6997 148.032 57.9576 148.192 58.3332 148.28C58.7227 148.372 59.0481 148.358 59.3094 148.239C59.5707 148.121 59.7691 147.975 59.9044 147.803L60.6139 148.261C60.3998 148.551 60.1564 148.759 59.8837 148.885C59.6082 149.012 59.3249 149.08 59.0339 149.087C58.74 149.095 58.4594 149.068 58.192 149.006C58.0215 148.966 57.8304 148.899 57.6189 148.805C57.4046 148.714 57.2083 148.581 57.0301 148.408C56.8496 148.234 56.7197 148.006 56.6404 147.722C56.5611 147.438 56.571 147.086 56.67 146.664L57.4916 143.165L58.3075 143.357L58.1386 144.076L58.1801 144.086C58.2625 143.983 58.3836 143.882 58.5435 143.781C58.7034 143.68 58.9014 143.608 59.1374 143.566C59.3734 143.524 59.6458 143.54 59.9546 143.612ZM59.658 144.316C59.3354 144.24 59.0485 144.24 58.7975 144.315C58.5442 144.389 58.3375 144.513 58.1775 144.687C58.0152 144.86 57.908 145.058 57.8561 145.279L57.6807 146.026C57.725 145.992 57.81 145.972 57.9357 145.965C58.0585 145.96 58.1989 145.963 58.357 145.973C58.5122 145.985 58.6635 145.999 58.8107 146.014C58.9551 146.031 59.0724 146.044 59.1627 146.053C59.3812 146.075 59.59 146.076 59.789 146.058C59.9851 146.04 60.154 145.984 60.2956 145.888C60.4344 145.794 60.5281 145.644 60.5768 145.436C60.6434 145.153 60.5888 144.914 60.4132 144.72C60.2347 144.527 59.983 144.392 59.658 144.316ZM54.2217 145.626L55.2233 142.502L56.0213 142.757L54.3564 147.952L53.5853 147.705L53.8455 146.893L53.7779 146.871C53.5716 147.096 53.3188 147.249 53.0195 147.329C52.7195 147.412 52.3733 147.391 51.981 147.265C51.6294 147.152 51.3448 146.981 51.1272 146.752C50.909 146.526 50.7732 146.244 50.7199 145.906C50.6659 145.57 50.7097 145.182 50.8513 144.74L51.9092 141.439L52.7073 141.695L51.6667 144.942C51.5359 145.35 51.54 145.701 51.6789 145.997C51.8171 146.295 52.0711 146.503 52.4408 146.622C52.6956 146.703 52.941 146.721 53.177 146.675C53.4108 146.628 53.6192 146.517 53.8021 146.342C53.985 146.167 54.1248 145.928 54.2217 145.626ZM48.4763 139.949C48.9479 140.146 49.3073 140.428 49.5546 140.793C49.8019 141.159 49.9353 141.576 49.9549 142.043C49.9745 142.511 49.879 142.996 49.6686 143.498C49.4544 144.009 49.1716 144.421 48.82 144.733C48.4653 145.046 48.0725 145.242 47.6417 145.321C47.2077 145.401 46.7637 145.345 46.3095 145.155C45.9558 145.007 45.6645 144.808 45.4355 144.558C45.2066 144.308 45.051 144.027 44.9686 143.715C44.8862 143.403 44.889 143.081 44.9772 142.748L45.7501 143.072C45.7129 143.326 45.7588 143.584 45.8878 143.846C46.0136 144.11 46.2468 144.313 46.5874 144.455C46.8887 144.582 47.1859 144.614 47.4788 144.552C47.7687 144.491 48.0364 144.345 48.282 144.114C48.5245 143.885 48.7254 143.58 48.8847 143.2C49.0475 142.812 49.1283 142.448 49.1268 142.108C49.1231 141.768 49.0423 141.471 48.8842 141.217C48.7239 140.963 48.4909 140.771 48.1853 140.643C47.9844 140.559 47.7874 140.517 47.5944 140.519C47.4014 140.52 47.2206 140.562 47.0522 140.646C46.8837 140.729 46.737 140.852 46.6121 141.016L45.8392 140.692C46.0073 140.413 46.2275 140.191 46.4998 140.025C46.7689 139.861 47.0736 139.768 47.4138 139.746C47.7509 139.726 48.1051 139.793 48.4763 139.949ZM48.7882 140.234L48.1463 139.964L48.3085 139.724C48.1492 139.627 48.0228 139.49 47.9294 139.315C47.8369 139.138 47.8441 138.921 47.9512 138.666C48.0693 138.384 48.2822 138.204 48.5899 138.125C48.8964 138.043 49.2756 138.097 49.7276 138.286L49.5396 138.808C49.3366 138.723 49.1547 138.685 48.9941 138.695C48.8322 138.702 48.7197 138.78 48.6565 138.931C48.5934 139.081 48.606 139.207 48.6945 139.309C48.783 139.41 48.9476 139.523 49.1882 139.647L48.7882 140.234ZM43.9832 137.848C44.2904 138.006 44.5394 138.208 44.7302 138.452C44.9199 138.699 45.0315 138.971 45.0649 139.268C45.0972 139.567 45.0321 139.874 44.8694 140.19C44.7263 140.468 44.5555 140.665 44.3571 140.781C44.1577 140.899 43.941 140.961 43.7069 140.965C43.4728 140.97 43.2329 140.939 42.987 140.874C42.7379 140.809 42.4931 140.734 42.2528 140.647C41.9386 140.533 41.6851 140.439 41.4923 140.363C41.2963 140.289 41.1437 140.254 41.0346 140.259C40.9233 140.263 40.8368 140.325 40.775 140.445L40.762 140.47C40.6015 140.782 40.562 141.068 40.6435 141.328C40.723 141.587 40.9342 141.805 41.2772 141.982C41.6328 142.166 41.9518 142.231 42.2341 142.18C42.5164 142.128 42.7441 142.035 42.9173 141.901L43.4942 142.518C43.2161 142.747 42.9295 142.89 42.6345 142.945C42.3363 143.002 42.0452 142.999 41.7611 142.935C41.4739 142.872 41.2082 142.778 40.9641 142.652C40.8084 142.572 40.6392 142.46 40.4567 142.318C40.2711 142.178 40.1128 142.001 39.982 141.79C39.849 141.578 39.7785 141.324 39.7705 141.03C39.7624 140.736 39.8576 140.396 40.0561 140.011L41.7023 136.816L42.4473 137.2L42.1089 137.857L42.1468 137.876C42.2515 137.797 42.3937 137.728 42.5734 137.669C42.7531 137.609 42.9624 137.588 43.2015 137.605C43.4406 137.621 43.7012 137.702 43.9832 137.848ZM43.5247 138.458C43.23 138.307 42.9519 138.236 42.6902 138.248C42.4264 138.259 42.1958 138.329 41.9984 138.459C41.7988 138.588 41.6469 138.753 41.5428 138.955L41.1915 139.637C41.2425 139.615 41.3299 139.616 41.4535 139.64C41.5739 139.665 41.7095 139.702 41.8603 139.75C42.0079 139.799 42.1513 139.849 42.2905 139.9C42.4264 139.951 42.5371 139.992 42.6225 140.023C42.8291 140.097 43.0313 140.15 43.2289 140.18C43.4233 140.211 43.6009 140.197 43.7615 140.138C43.9189 140.081 44.0464 139.958 44.144 139.768C44.2774 139.509 44.2825 139.264 44.1593 139.033C44.0329 138.803 43.8214 138.611 43.5247 138.458ZM39.1227 132.915L34.9035 139.115L34.2341 138.66L34.7215 137.943L34.6393 137.887C34.5352 137.931 34.3968 137.983 34.2242 138.043C34.0483 138.104 33.8425 138.124 33.607 138.104C33.3682 138.085 33.102 137.975 32.8084 137.775C32.4287 137.517 32.1586 137.194 31.9981 136.807C31.8376 136.42 31.7947 135.998 31.8693 135.539C31.9439 135.08 32.1424 134.613 32.4647 134.14C32.7896 133.662 33.1525 133.303 33.5534 133.064C33.9529 132.826 34.3618 132.709 34.78 132.713C35.1969 132.719 35.5933 132.85 35.9691 133.105C36.2588 133.302 36.4581 133.508 36.567 133.723C36.6746 133.939 36.7334 134.141 36.7435 134.328C36.7522 134.517 36.754 134.67 36.749 134.787L36.8077 134.827L38.4299 132.443L39.1227 132.915ZM35.7566 136.397C35.9884 136.056 36.1429 135.722 36.2202 135.394C36.2962 135.067 36.2882 134.766 36.1963 134.488C36.103 134.213 35.9174 133.981 35.6395 133.792C35.3498 133.594 35.0562 133.506 34.7585 133.527C34.4576 133.549 34.1696 133.656 33.8946 133.85C33.6163 134.044 33.368 134.302 33.1495 134.623C32.9338 134.94 32.7883 135.259 32.713 135.58C32.6344 135.902 32.6424 136.204 32.7369 136.485C32.8281 136.768 33.0205 137.009 33.3141 137.209C33.5959 137.401 33.8814 137.49 34.1704 137.478C34.4581 137.468 34.7375 137.369 35.0085 137.181C35.2782 136.995 35.5275 136.734 35.7566 136.397ZM32.988 131.132L32.5822 131.626L29.0592 132.133C28.6462 132.192 28.2971 132.251 28.0119 132.311C27.7253 132.373 27.4843 132.454 27.2889 132.553C27.0901 132.654 26.9201 132.79 26.7789 132.962C26.6166 133.159 26.5236 133.369 26.5 133.592C26.4746 133.813 26.511 134.03 26.6092 134.242C26.7073 134.455 26.858 134.644 27.061 134.811C27.2769 134.989 27.5021 135.099 27.7367 135.141C27.968 135.184 28.1929 135.162 28.4115 135.075C28.6282 134.987 28.8245 134.835 29.0003 134.621L29.6479 135.153C29.3774 135.482 29.064 135.709 28.7078 135.833C28.3516 135.957 27.9856 135.981 27.6098 135.905C27.2321 135.828 26.8796 135.655 26.5522 135.386C26.2229 135.115 25.9882 134.806 25.8482 134.458C25.7081 134.11 25.6627 133.759 25.7121 133.404C25.7614 133.05 25.9048 132.728 26.1423 132.439C26.3121 132.232 26.5156 132.061 26.7529 131.925C26.9869 131.789 27.2945 131.676 27.6758 131.585C28.0538 131.494 28.5458 131.408 29.1518 131.326L31.523 131.013L31.5591 130.969L28.9469 128.823L29.4428 128.22L32.988 131.132ZM29.7725 125.768L24.5336 131.135L23.9542 130.57L24.5594 129.95L24.4883 129.88C24.3781 129.905 24.2328 129.932 24.0523 129.961C23.8685 129.99 23.6624 129.974 23.434 129.913C23.2022 129.852 22.9593 129.698 22.7051 129.45C22.3765 129.129 22.167 128.764 22.0767 128.355C21.9864 127.946 22.0181 127.522 22.1718 127.083C22.3256 126.644 22.6025 126.22 23.0027 125.81C23.4062 125.396 23.8263 125.107 24.2629 124.941C24.6979 124.776 25.1209 124.733 25.532 124.81C25.9415 124.889 26.3088 125.087 26.6341 125.404C26.8848 125.649 27.045 125.887 27.1148 126.117C27.1829 126.349 27.2055 126.558 27.1826 126.744C27.1581 126.932 27.1331 127.082 27.1077 127.197L27.1586 127.246L29.1728 125.183L29.7725 125.768ZM25.8491 128.608C26.1368 128.313 26.3475 128.011 26.481 127.701C26.6129 127.393 26.6578 127.095 26.6158 126.806C26.5722 126.518 26.4301 126.257 26.1895 126.022C25.9388 125.778 25.6651 125.64 25.3684 125.608C25.0683 125.576 24.766 125.632 24.4613 125.775C24.1533 125.917 23.8637 126.128 23.5925 126.405C23.3246 126.68 23.1255 126.968 22.9953 127.271C22.8616 127.574 22.8167 127.873 22.8604 128.167C22.9008 128.461 23.0481 128.732 23.3022 128.98C23.5461 129.218 23.8115 129.357 24.0982 129.395C24.3833 129.435 24.6757 129.386 24.9754 129.249C25.2734 129.113 25.5646 128.899 25.8491 128.608ZM17.4695 120.631L18.0747 120.137L20.0868 122.601L19.4816 123.095L17.4695 120.631ZM12.0218 113.995L12.6092 114.511C12.5294 114.619 12.4649 114.744 12.4155 114.886C12.3629 115.027 12.3462 115.184 12.3653 115.358C12.3844 115.532 12.4601 115.721 12.5924 115.926C12.7735 116.206 12.989 116.398 13.239 116.502C13.4857 116.604 13.7075 116.592 13.9044 116.465C14.0795 116.352 14.1766 116.199 14.1958 116.006C14.2151 115.814 14.1712 115.56 14.0641 115.246L13.792 114.458C13.6268 113.984 13.5819 113.58 13.657 113.247C13.7302 112.915 13.9268 112.646 14.247 112.439C14.5096 112.27 14.793 112.194 15.0975 112.211C15.4006 112.227 15.6986 112.331 15.9913 112.522C16.284 112.713 16.5453 112.987 16.7751 113.343C17.0769 113.811 17.2253 114.263 17.2202 114.7C17.2151 115.137 17.044 115.523 16.7068 115.856L16.1083 115.296C16.3138 115.073 16.4211 114.833 16.4301 114.576C16.4378 114.318 16.3485 114.044 16.1623 113.756C15.9504 113.428 15.7126 113.212 15.4488 113.109C15.1817 113.005 14.9498 113.017 14.7529 113.144C14.5938 113.247 14.4965 113.389 14.461 113.569C14.4235 113.751 14.4524 113.975 14.5477 114.24L14.8619 115.12C15.0334 115.604 15.0783 116.011 14.9966 116.343C14.9117 116.674 14.7111 116.942 14.3949 117.146C14.1363 117.313 13.8607 117.388 13.5681 117.371C13.2742 117.352 12.989 117.253 12.7125 117.074C12.4348 116.893 12.1919 116.641 11.9838 116.319C11.691 115.865 11.5606 115.445 11.5925 115.058C11.6232 114.669 11.7662 114.315 12.0218 113.995ZM13.9052 108.46C14.155 108.923 14.2684 109.377 14.2454 109.822C14.2192 110.267 14.0708 110.679 13.8 111.06C13.526 111.439 13.1432 111.762 12.6516 112.027C12.1601 112.293 11.6784 112.437 11.2067 112.461C10.7318 112.483 10.302 112.39 9.91721 112.181C9.52922 111.97 9.2182 111.649 8.98415 111.215C8.84913 110.965 8.75745 110.696 8.70911 110.407C8.66078 110.119 8.67633 109.824 8.75578 109.523C8.83313 109.222 8.99284 108.93 9.23489 108.646C9.47695 108.362 9.82189 108.099 10.2697 107.857L10.5822 107.688L12.5805 111.388L11.9432 111.732L10.3499 108.782C10.0791 108.929 9.86671 109.113 9.71277 109.337C9.5577 109.558 9.47216 109.8 9.45616 110.064C9.43904 110.327 9.50249 110.591 9.64652 110.858C9.80518 111.151 10.0154 111.366 10.2771 111.502C10.5356 111.637 10.8113 111.699 11.1044 111.689C11.3975 111.678 11.6763 111.602 11.9409 111.459L12.3658 111.229C12.7282 111.033 13.0017 110.805 13.1862 110.544C13.3675 110.282 13.463 110.003 13.4727 109.707C13.4804 109.412 13.4037 109.116 13.2428 108.818C13.1382 108.624 13.0166 108.464 12.878 108.337C12.7363 108.209 12.5792 108.118 12.407 108.063C12.2326 108.009 12.0452 107.996 11.8448 108.023L11.66 107.203C11.9421 107.147 12.2226 107.159 12.5016 107.237C12.7784 107.316 13.0382 107.458 13.2809 107.663C13.5216 107.87 13.7296 108.135 13.9052 108.46ZM13.3014 102.502C13.4613 102.873 13.551 103.214 13.5704 103.522C13.592 103.83 13.5639 104.106 13.4862 104.351C13.4098 104.593 13.307 104.803 13.1779 104.982L12.4835 104.554C12.5449 104.445 12.6114 104.312 12.683 104.155C12.7568 103.997 12.7974 103.807 12.8049 103.585C12.8136 103.36 12.7529 103.096 12.6229 102.793C12.4488 102.389 12.2074 102.097 11.8984 101.918C11.5895 101.739 11.2263 101.74 10.8087 101.919L9.79096 102.357L9.81902 102.422C9.93469 102.44 10.0824 102.471 10.2621 102.518C10.4388 102.563 10.6209 102.66 10.8085 102.808C10.9931 102.956 11.1555 103.193 11.2959 103.519C11.4699 103.923 11.5304 104.328 11.4775 104.732C11.4237 105.134 11.2543 105.507 10.9694 105.851C10.6836 106.193 10.2797 106.477 9.75775 106.701C9.24451 106.922 8.75878 107.024 8.30055 107.007C7.84015 106.991 7.43633 106.867 7.08909 106.635C6.73968 106.404 6.47423 106.078 6.29273 105.656C6.1524 105.33 6.09543 105.047 6.12184 104.809C6.14514 104.57 6.2033 104.37 6.29634 104.208C6.38627 104.046 6.46256 103.918 6.52523 103.824L6.49155 103.746L5.6956 104.088L5.37564 103.344L10.5297 101.127C10.9603 100.942 11.3526 100.889 11.7064 100.969C12.0615 101.045 12.3728 101.221 12.6402 101.495C12.9088 101.766 13.1292 102.101 13.3014 102.502ZM10.5594 103.712C10.4265 103.403 10.2436 103.173 10.0106 103.02C9.77751 102.868 9.50448 102.793 9.19145 102.797C8.87842 102.8 8.53705 102.881 8.16735 103.04C7.80634 103.195 7.51114 103.387 7.28172 103.614C7.05231 103.842 6.90516 104.096 6.84026 104.376C6.77537 104.657 6.81028 104.954 6.945 105.267C7.08533 105.593 7.28492 105.829 7.54375 105.976C7.80165 106.12 8.09317 106.187 8.41831 106.176C8.74252 106.162 9.07425 106.083 9.41351 105.937C9.76147 105.787 10.0458 105.6 10.2665 105.377C10.4841 105.152 10.6227 104.899 10.6823 104.618C10.7388 104.336 10.6979 104.034 10.5594 103.712ZM6.63829 97.2029L3.57944 98.2229L3.31433 97.4279L8.48877 95.7024L8.75388 96.4974L7.878 96.7895L7.89598 96.8434C8.19918 96.8771 8.48555 96.9912 8.75508 97.1858C9.02237 97.3812 9.22117 97.6743 9.35148 98.065C9.45932 98.3884 9.48444 98.6995 9.42682 98.9982C9.36697 99.2977 9.21727 99.5672 8.97773 99.8068C8.73594 100.047 8.39496 100.241 7.95477 100.387L4.66684 101.484L4.40173 100.689L7.63576 99.6104C8.01306 99.4846 8.27881 99.2787 8.433 98.9927C8.58644 98.7045 8.60811 98.3953 8.49802 98.0651C8.43212 97.8675 8.31456 97.6833 8.14535 97.5127C7.97539 97.3398 7.76276 97.2185 7.50746 97.1489C7.25142 97.0771 6.96169 97.0951 6.63829 97.2029ZM8.05421 94.2342L2.77433 95.6035L2.57108 94.8197L3.36856 94.6129L3.3543 94.5579C3.06809 94.5294 2.81095 94.4102 2.58287 94.2003C2.35479 93.9905 2.19975 93.7274 2.11773 93.4111C2.10228 93.3516 2.08411 93.2768 2.06322 93.1868C2.04234 93.0969 2.02824 93.0284 2.02094 92.9813L2.84592 92.7674C2.84618 92.7967 2.85221 92.8624 2.86402 92.9645C2.87293 93.0649 2.89136 93.1689 2.91929 93.2766C2.98586 93.5333 3.09914 93.7485 3.25914 93.9222C3.41626 94.0943 3.60393 94.2143 3.82216 94.2825C4.03749 94.3489 4.26432 94.3512 4.50265 94.2894L7.84383 93.4229L8.05421 94.2342ZM6.99264 89.0223C7.05762 89.3617 7.05264 89.6821 6.97772 89.9832C6.90047 90.2849 6.75534 90.5404 6.54235 90.7499C6.32703 90.9599 6.04498 91.0982 5.69619 91.165C5.38926 91.2237 5.1289 91.2109 4.91509 91.1265C4.69895 91.0425 4.51688 90.9098 4.36888 90.7284C4.22087 90.5471 4.09677 90.3394 3.99656 90.1055C3.89358 89.8697 3.802 89.6305 3.72183 89.388C3.61767 89.0704 3.53577 88.8125 3.47612 88.6143C3.4137 88.4141 3.34686 88.2726 3.27557 88.1898C3.20385 88.1047 3.10172 88.0749 2.96918 88.1002L2.94128 88.1056C2.59714 88.1715 2.34777 88.3168 2.19315 88.5416C2.03808 88.7641 1.99682 89.0649 2.06936 89.4439C2.14458 89.8369 2.28958 90.1285 2.50437 90.3188C2.71916 90.5091 2.93289 90.6309 3.14556 90.6842L3.01607 91.5189C2.66384 91.4416 2.37479 91.3041 2.14892 91.1063C1.92028 90.9066 1.74343 90.6753 1.61839 90.4124C1.49058 90.1477 1.40086 89.8804 1.34924 89.6107C1.3163 89.4386 1.2994 89.237 1.29853 89.0057C1.29489 88.7726 1.33583 88.5394 1.42133 88.3061C1.5064 88.0705 1.6623 87.8587 1.88905 87.6706C2.11579 87.4826 2.44192 87.3479 2.86744 87.2664L6.39712 86.5909L6.55466 87.414L5.8292 87.5528L5.83721 87.5947C5.96415 87.6282 6.10635 87.6974 6.26381 87.8023C6.42127 87.9071 6.5672 88.0588 6.70159 88.2572C6.83599 88.4557 6.93301 88.7107 6.99264 89.0223ZM6.22919 89.0382C6.16689 88.7127 6.05043 88.4506 5.87982 88.2518C5.70876 88.0507 5.51118 87.9126 5.28708 87.8374C5.06254 87.7598 4.83865 87.7424 4.61543 87.7852L3.86206 87.9293C3.91059 87.9562 3.96364 88.0256 4.02122 88.1375C4.07602 88.2475 4.1309 88.3768 4.18585 88.5254C4.23803 88.6721 4.28722 88.8157 4.33341 88.9564C4.37684 89.0951 4.41282 89.2075 4.44136 89.2936C4.5102 89.5022 4.59382 89.6935 4.6922 89.8675C4.78782 90.0396 4.90814 90.1709 5.05319 90.2612C5.19546 90.3497 5.37123 90.3739 5.5805 90.3338C5.8665 90.2791 6.0625 90.1319 6.16849 89.8923C6.27171 89.6508 6.29194 89.3661 6.22919 89.0382ZM2.82504 84.5855L6.08884 84.2475L6.17517 85.0811L0.749642 85.643L0.666236 84.8377L1.51398 84.7499L1.50666 84.6792C1.21797 84.5806 0.976623 84.4104 0.782604 84.1687C0.58623 83.9272 0.466826 83.6016 0.424392 83.1919C0.386347 82.8245 0.428413 82.4953 0.550588 82.2042C0.67041 81.9133 0.874281 81.6756 1.1622 81.4911C1.44777 81.3068 1.82132 81.1907 2.28287 81.1429L5.73034 80.7859L5.81667 81.6195L2.42572 81.9707C1.99949 82.0148 1.67893 82.1599 1.46401 82.4059C1.24674 82.6521 1.15811 82.9683 1.1981 83.3545C1.22566 83.6206 1.30798 83.8525 1.44508 84.0501C1.58192 84.2454 1.76724 84.3916 2.00104 84.4888C2.23483 84.586 2.5095 84.6182 2.82504 84.5855ZM5.69136 77.0426C5.70405 77.5538 5.59428 77.997 5.36204 78.3722C5.12981 78.7474 4.80434 79.0397 4.38563 79.249C3.96693 79.4583 3.48541 79.5697 2.94107 79.5833C2.38726 79.597 1.89602 79.5074 1.46732 79.3144C1.03621 79.119 0.696575 78.8409 0.448431 78.48C0.197861 78.1168 0.0664648 77.6891 0.0542422 77.1968C0.0447226 76.8134 0.107144 76.4661 0.241507 76.1549C0.375869 75.8437 0.568413 75.5867 0.819139 75.3839C1.06986 75.1811 1.36504 75.0519 1.70467 74.9961L1.72547 75.8339C1.47856 75.9039 1.26198 76.0514 1.07574 76.2763C0.887079 76.4988 0.797331 76.7947 0.806498 77.1639C0.814608 77.4905 0.906919 77.7748 1.08343 78.0167C1.25752 78.2563 1.5001 78.4409 1.81118 78.5705C2.11984 78.6978 2.48006 78.7564 2.89187 78.7462C3.31314 78.7357 3.67833 78.6603 3.98745 78.52C4.2965 78.3774 4.53439 78.182 4.7011 77.934C4.86776 77.6835 4.94697 77.3926 4.93875 77.0613C4.93334 76.8436 4.89057 76.6469 4.81043 76.4713C4.73028 76.2957 4.61769 76.1481 4.47263 76.0285C4.32757 75.909 4.15499 75.8256 3.9549 75.7785L3.9341 74.9407C4.25714 74.9801 4.54997 75.09 4.81258 75.2706C5.07277 75.4488 5.28239 75.6887 5.44144 75.9903C5.59806 76.2895 5.68137 76.6403 5.69136 77.0426ZM5.55923 77.4438L5.54195 76.7479L5.82736 76.7977C5.85118 76.6124 5.9239 76.4413 6.04551 76.2843C6.16949 76.1273 6.36994 76.0454 6.64684 76.0385C6.95214 76.0309 7.20379 76.1514 7.40178 76.3998C7.60208 76.6459 7.70831 77.0139 7.72047 77.5038L7.16737 77.5459C7.16191 77.3258 7.12188 77.1445 7.0473 77.0019C6.97502 76.8568 6.85723 76.7863 6.69393 76.7904C6.53063 76.7944 6.42089 76.8576 6.36472 76.9797C6.30855 77.1019 6.27316 77.2981 6.25856 77.5685L5.55923 77.4438ZM5.77053 72.0837C5.75163 72.4288 5.66948 72.7385 5.52406 73.0127C5.37628 73.2867 5.17376 73.4997 4.91649 73.6516C4.65686 73.8033 4.34975 73.8695 3.99517 73.8501C3.68314 73.833 3.43357 73.7577 3.24646 73.6242C3.05699 73.4905 2.91233 73.3178 2.81249 73.1061C2.71265 72.8943 2.64233 72.6628 2.60155 72.4117C2.55854 72.158 2.52741 71.9038 2.50816 71.649C2.48373 71.3158 2.46651 71.0457 2.45649 70.8389C2.44425 70.6296 2.41352 70.4761 2.36433 70.3786C2.31527 70.2787 2.22337 70.2251 2.08863 70.2177L2.06026 70.2161C1.7104 70.197 1.43332 70.2778 1.22899 70.4587C1.0248 70.6372 0.912157 70.9191 0.891061 71.3044C0.869189 71.7039 0.939504 72.0219 1.10201 72.2584C1.26451 72.4949 1.44252 72.6647 1.63604 72.7678L1.30889 73.5465C0.985708 73.3866 0.738399 73.1834 0.566958 72.9369C0.393283 72.6879 0.277506 72.4208 0.219627 72.1354C0.159514 71.8476 0.136964 71.5666 0.151977 71.2924C0.161554 71.1175 0.19383 70.9177 0.248804 70.6931C0.301544 70.466 0.397563 70.2496 0.536861 70.0438C0.676289 69.8357 0.878717 69.6678 1.14415 69.5401C1.40957 69.4123 1.75858 69.3603 2.19117 69.384L5.77955 69.5805L5.73373 70.4173L4.9962 70.3769L4.99387 70.4194C5.10896 70.4826 5.23025 70.5841 5.35775 70.7239C5.48524 70.8636 5.59025 71.046 5.67276 71.271C5.75528 71.4961 5.78787 71.7669 5.77053 72.0837ZM5.0258 71.9149C5.04392 71.584 4.99419 71.3015 4.8766 71.0674C4.75914 70.831 4.60075 70.6492 4.40143 70.5221C4.20225 70.3927 3.98919 70.3218 3.76226 70.3093L2.99636 70.2674C3.03697 70.3052 3.0717 70.3853 3.10056 70.5078C3.12718 70.6278 3.14922 70.7666 3.16668 70.924C3.18191 71.0789 3.19497 71.2302 3.20585 71.3778C3.2145 71.5229 3.22228 71.6407 3.22918 71.7312C3.24564 71.9502 3.28061 72.156 3.33408 72.3486C3.38531 72.5387 3.47041 72.6951 3.58935 72.8178C3.70606 72.938 3.87079 73.004 4.08354 73.0156C4.3743 73.0315 4.60003 72.936 4.76073 72.729C4.9192 72.5196 5.00755 72.2482 5.0258 71.9149ZM8.28926 65.6383L0.910439 64.2956L1.0554 63.499L1.90787 63.6541L1.92567 63.5563C1.84353 63.4788 1.74 63.3733 1.61509 63.2399C1.48827 63.1037 1.38623 62.9239 1.30898 62.7005C1.22982 62.4744 1.22203 62.1866 1.2856 61.8372C1.36783 61.3854 1.55327 61.0076 1.84193 60.704C2.13059 60.4004 2.49981 60.1897 2.94958 60.0718C3.39935 59.9539 3.90607 59.9463 4.46973 60.0488C5.03805 60.1523 5.51308 60.3386 5.89482 60.6078C6.27423 60.8765 6.54692 61.2029 6.71287 61.5868C6.8765 61.9703 6.91762 62.3857 6.83624 62.8329C6.77351 63.1776 6.66622 63.4432 6.51437 63.6297C6.36019 63.8158 6.19955 63.9514 6.03247 64.0365C5.86306 64.1212 5.72393 64.1849 5.61509 64.2277L5.60237 64.2975L8.4393 64.8138L8.28926 65.6383ZM3.74115 63.9733C4.14642 64.047 4.51476 64.0527 4.84616 63.9903C5.17522 63.9275 5.44787 63.7978 5.66409 63.6013C5.87799 63.4044 6.01503 63.1406 6.07522 62.8099C6.13795 62.4652 6.09945 62.161 5.95974 61.8973C5.81812 61.6309 5.60302 61.4113 5.31443 61.2385C5.02394 61.0629 4.6877 60.9403 4.30571 60.8708C3.92839 60.8022 3.57773 60.7985 3.25375 60.8599C2.92786 60.9185 2.65521 61.0481 2.43581 61.2488C2.2145 61.4468 2.07206 61.7205 2.00848 62.0698C1.94745 62.4052 1.98118 62.7025 2.10967 62.9617C2.23583 63.2205 2.43971 63.4357 2.72131 63.6072C3.00058 63.7784 3.34053 63.9004 3.74115 63.9733ZM7.4271 59.3071L6.81016 59.1398L4.902 56.1353C4.67868 55.7829 4.48118 55.4889 4.30953 55.2535C4.13559 55.0175 3.96296 54.8309 3.79166 54.6937C3.6187 54.5536 3.42482 54.4544 3.21004 54.3962C2.96326 54.3293 2.73352 54.3308 2.52079 54.4007C2.30869 54.4683 2.12595 54.5904 1.97256 54.7671C1.81918 54.9439 1.70811 55.159 1.63935 55.4127C1.56625 55.6823 1.55843 55.9328 1.61588 56.1643C1.67166 56.3928 1.78408 56.5888 1.95314 56.7524C2.12282 56.9137 2.34132 57.0306 2.60866 57.103L2.38937 57.9119C1.97808 57.8004 1.64277 57.6077 1.38343 57.3338C1.12409 57.0599 0.951888 56.7361 0.866815 56.3622C0.782361 55.9861 0.795576 55.5936 0.906458 55.1846C1.01796 54.7733 1.20359 54.4324 1.46335 54.1618C1.72311 53.8913 2.02484 53.7057 2.36854 53.6051C2.71223 53.5045 3.06459 53.5032 3.42561 53.601C3.68381 53.671 3.9236 53.7863 4.14497 53.9469C4.36468 54.1046 4.59437 54.3386 4.83404 54.6488C5.07204 54.9562 5.35246 55.3695 5.67529 55.8887L6.93415 57.9225L6.98899 57.9373L7.87357 54.6744L8.6276 54.8789L7.4271 59.3071ZM10.9984 54.1833L3.96548 51.5778L4.24676 50.8185L5.05927 51.1196L5.09381 51.0263C5.0264 50.9357 4.94279 50.8138 4.84298 50.6607C4.74178 50.5046 4.67256 50.3098 4.63534 50.0763C4.59672 49.8399 4.63909 49.5551 4.76246 49.2221C4.92201 48.7915 5.17032 48.4517 5.50738 48.203C5.84444 47.9542 6.24468 47.8109 6.70809 47.773C7.17151 47.7351 7.67184 47.8157 8.20907 48.0147C8.75074 48.2154 9.18614 48.4815 9.51525 48.813C9.84214 49.1436 10.0539 49.5124 10.1506 49.9194C10.245 50.3255 10.2133 50.7416 10.0554 51.1679C9.93364 51.4964 9.78179 51.7394 9.59981 51.8966C9.41562 52.0531 9.23385 52.1587 9.05452 52.2134C8.87296 52.2674 8.72487 52.3059 8.61025 52.3291L8.58558 52.3957L11.2895 53.3974L10.9984 54.1833ZM6.8091 51.7527C7.19538 51.8958 7.55712 51.9654 7.89432 51.9616C8.2293 51.9569 8.52034 51.8767 8.76744 51.7208C9.01231 51.5641 9.19315 51.3281 9.30993 51.0129C9.43166 50.6843 9.44665 50.3781 9.35492 50.0942C9.26178 49.8072 9.08815 49.5535 8.83401 49.3331C8.57848 49.1097 8.26868 48.9306 7.9046 48.7957C7.54497 48.6624 7.20029 48.5979 6.87057 48.6019C6.53946 48.603 6.24842 48.6832 5.99745 48.8427C5.74509 48.9992 5.55723 49.2439 5.43386 49.5769C5.31543 49.8966 5.29694 50.1952 5.3784 50.4728C5.45764 50.7496 5.621 50.9969 5.86847 51.2149C6.11372 51.4319 6.42727 51.6112 6.8091 51.7527ZM10.7059 40.8473L11.4021 41.2018L9.95862 44.0373L9.26239 43.6829L10.7059 40.8473ZM16.9818 37.4715C16.7898 37.7589 16.5615 37.9836 16.2967 38.1455C16.03 38.3062 15.7472 38.3863 15.4485 38.3861C15.1478 38.3845 14.8497 38.2851 14.5544 38.0878C14.2946 37.9143 14.1181 37.7224 14.0251 37.5122C13.9301 37.3007 13.8935 37.0784 13.9154 36.8453C13.9372 36.6122 13.9946 36.3772 14.0874 36.1402C14.1795 35.9 14.2822 35.6654 14.3953 35.4363C14.544 35.137 14.6666 34.8958 14.7633 34.7127C14.8593 34.5263 14.911 34.3787 14.9183 34.2697C14.927 34.1587 14.8752 34.0658 14.763 33.9908L14.7394 33.975C14.448 33.7804 14.1683 33.7089 13.9004 33.7605C13.6338 33.8102 13.3933 33.9955 13.179 34.3164C12.9567 34.6491 12.8553 34.9586 12.8748 35.2449C12.8942 35.5312 12.961 35.7679 13.0751 35.9552L12.397 36.4588C12.2003 36.1566 12.0909 35.8558 12.0688 35.5564C12.0461 35.2536 12.0825 34.9648 12.1779 34.6897C12.2728 34.4114 12.3964 34.1581 12.549 33.9297C12.6463 33.784 12.7758 33.6285 12.9374 33.4632C13.0984 33.2946 13.2913 33.1572 13.5159 33.0511C13.7419 32.9429 14.0016 32.9015 14.2951 32.9267C14.5886 32.9519 14.9155 33.0848 15.2757 33.3255L18.2641 35.3216L17.7986 36.0185L17.1844 35.6082L17.1607 35.6437C17.2276 35.7566 17.2803 35.9057 17.3189 36.0909C17.3575 36.2761 17.355 36.4866 17.3114 36.7223C17.2679 36.9579 17.158 37.2077 16.9818 37.4715ZM16.4268 36.947C16.6109 36.6714 16.7119 36.4029 16.7299 36.1416C16.7492 35.8783 16.7054 35.6413 16.5985 35.4304C16.493 35.2176 16.3458 35.048 16.1568 34.9218L15.5189 34.4957C15.5346 34.5489 15.5237 34.6356 15.4862 34.7557C15.448 34.8726 15.3963 35.0032 15.3312 35.1476C15.2654 35.2887 15.1996 35.4255 15.1339 35.5581C15.0674 35.6874 15.0142 35.7927 14.974 35.8741C14.8767 36.071 14.802 36.266 14.7499 36.459C14.6972 36.6487 14.6908 36.8266 14.7307 36.9928C14.77 37.1556 14.8782 37.2963 15.0554 37.4146C15.2975 37.5763 15.5404 37.6091 15.7841 37.5128C16.0272 37.4132 16.2414 37.2246 16.4268 36.947ZM18.1994 28.4347L17.9041 29.1592C17.776 29.1193 17.637 29.0993 17.4868 29.0993C17.3363 29.0959 17.1822 29.1317 17.0244 29.2068C16.8667 29.2819 16.7128 29.4155 16.5628 29.6077C16.3573 29.8709 16.2468 30.1375 16.2311 30.4076C16.2151 30.6744 16.2994 30.8799 16.4841 31.0241C16.6484 31.1523 16.8247 31.1938 17.0131 31.1487C17.2015 31.1036 17.4265 30.9789 17.6881 30.7747L18.3431 30.2588C18.7365 29.9473 19.1029 29.7723 19.4422 29.7339C19.7797 29.694 20.0987 29.7914 20.3991 30.0259C20.6454 30.2182 20.8103 30.4611 20.8936 30.7544C20.9784 31.0459 20.9785 31.3613 20.8937 31.7006C20.809 32.0399 20.6363 32.3766 20.3755 32.7106C20.0331 33.1491 19.6546 33.4378 19.2399 33.5766C18.8252 33.7153 18.4051 33.6802 17.9796 33.4712L18.3124 32.7218C18.5904 32.8427 18.8521 32.8653 19.0974 32.7896C19.3443 32.7119 19.5733 32.5378 19.7845 32.2673C20.0249 31.9594 20.1505 31.6639 20.1612 31.3809C20.1714 31.0946 20.0842 30.8794 19.8995 30.7351C19.7502 30.6186 19.5844 30.5732 19.402 30.599C19.2178 30.6234 19.016 30.7241 18.7966 30.9013L18.0692 31.4867C17.6685 31.8076 17.2981 31.9839 16.9579 32.0157C16.6173 32.0442 16.2987 31.9425 16.002 31.7109C15.7594 31.5215 15.598 31.2859 15.5177 31.0039C15.4389 30.7202 15.4389 30.4183 15.5175 30.0982C15.5977 29.7763 15.7557 29.4642 15.9917 29.1619C16.3239 28.7365 16.678 28.4753 17.054 28.3784C17.4315 28.2796 17.8133 28.2984 18.1994 28.4347ZM23.9241 23.1982L24.4841 23.7429L22.2658 26.0239L21.7058 25.4792L23.9241 23.1982Z" fill="black" fill-opacity="0.8"/>
</svg>
